<svg width="48" height="48" viewBox="0 0 48 48" fill="none" xmlns="http://www.w3.org/2000/svg">
<path d="M5.00195 28.7073H42.9985" stroke="#3297B9" stroke-width="1.46286"/>
<path d="M2.8252 19.2723C2.8252 19.2723 12.1589 11.6403 23.969 11.8038C23.969 11.8038 35.1562 11.2782 45.1752 19.2723C45.1752 19.2723 36.6475 9.98151 23.969 10.4721C23.969 10.4721 12.2134 10.0594 2.8252 19.2723Z" fill="#3297B9"/>
<path d="M7.97266 18.7312C7.97266 18.7312 15.0362 12.2829 23.9766 12.4231C23.9766 12.4231 32.4419 11.9792 40.0233 18.7312C40.0233 18.7312 33.0883 10.6786 23.9766 10.6163C23.9766 10.6163 15.0829 10.9512 7.97266 18.7312Z" fill="#3297B9"/>
<path d="M11.894 17.6993C11.894 17.6993 17.2287 12.4348 23.9846 12.5477C23.9846 12.5477 30.3822 12.1856 36.1063 17.6993C36.1063 17.6993 29.9967 11.0252 23.8405 11.0719C23.8405 11.0719 17.2637 11.3445 11.894 17.6993Z" fill="#3297B9"/>
<path d="M15.3988 24.5875H16.1387V25.3118H15.2392C14.9082 25.8803 14.0048 26.4839 12.4006 26.4839C10.4147 26.4839 9.99023 25.3118 9.99023 24.7394C9.99023 22.9638 11.8749 22.7963 11.8749 22.7963L12.1591 23.4856C11.4738 23.4856 10.8118 23.8088 10.8118 24.6576C10.8118 25.2261 11.3336 25.7596 12.4862 25.7596C13.6388 25.7596 14.5656 25.1911 14.5656 24.5875V19.6306H15.3911V24.5875H15.3988Z" fill="#134B94"/>
<path d="M20.1454 20.0629C20.1843 20.3355 19.9818 20.5769 19.6703 20.6158C19.3588 20.6548 19.0668 20.464 19.0278 20.1914C18.9928 19.9188 19.2031 19.6696 19.5146 19.6385C19.8261 19.6073 20.1103 19.7903 20.1454 20.0629ZM21.5082 24.5876C21.921 24.5876 21.9872 24.3929 21.9872 23.9685C21.9872 22.5394 20.2739 21.9514 19.5224 21.9592C18.8721 21.967 17.6844 22.5628 17.665 23.4545C18.7631 23.4467 19.5886 23.4856 20.9514 23.4467C20.8229 23.6492 20.3634 24.2099 20.4491 24.1709L16.7577 24.1865C16.7577 24.1865 16.6681 23.47 16.8317 23.0534C17.2172 22.0488 18.3425 21.2622 19.5496 21.2622C21.298 21.2622 22.8205 22.4421 22.8088 23.7543C22.801 25.3858 22.1585 25.3119 19.8027 25.3119H15.7998V24.5876H21.5044H21.5082Z" fill="#134B94"/>
<path d="M26.0602 25.3119H23.9536V19.5918H24.7752V24.5877H26.0602V25.3119Z" fill="#134B94"/>
<path d="M35.6199 25.3118H33.2836C33.2836 25.3118 33.7431 25.1327 33.9339 24.9652C34.0818 24.8367 34.2649 24.5875 34.2649 24.5875H35.6199V25.3118ZM27.6336 23.0611C26.6445 23.0611 26.442 22.2278 27.5946 21.7917L33.5562 19.5488L33.3381 20.4172L28.3111 22.3213H32.2128C33.3109 22.3213 34.2649 22.6562 34.2649 23.7737C34.2649 24.8912 33.3147 25.3079 32.2128 25.3079H25.7139V24.5836H32.1232C32.7657 24.5836 33.342 24.4551 33.342 23.7737C33.342 22.9949 32.1232 23.0572 32.1232 23.0572H27.6375L27.6336 23.0611Z" fill="#134B94"/>
<path d="M38.0262 21.1726C38.0612 21.4452 37.8626 21.6866 37.5511 21.7295C37.2396 21.7684 36.9476 21.5737 36.9086 21.3011C36.8697 21.0286 37.0838 20.7793 37.3954 20.7482C37.7069 20.717 37.9911 20.9001 38.0262 21.1726ZM36.8191 21.1726C36.858 21.4452 36.6555 21.6866 36.344 21.7295C36.0325 21.7684 35.7405 21.5737 35.7015 21.3011C35.6665 21.0286 35.8767 20.7793 36.1882 20.7482C36.4998 20.717 36.784 20.9001 36.8191 21.1726ZM36.6283 24.5876V22.3369H37.4538V25.3118H35.3472V24.5876H36.6283Z" fill="#134B94"/>
<path d="M11.0649 37.4606V31.7405H9.36719V30.9423H13.6427V31.7405H11.9488V37.4606H11.0649Z" fill="#134B94"/>
<path d="M17.8519 37.4608V35.2257C17.8519 34.7663 17.7156 34.3885 17.4469 34.0965C17.1783 33.8084 16.8278 33.6604 16.3956 33.6604C15.9634 33.6604 15.6207 33.8045 15.3481 34.0926C15.0717 34.3808 14.9354 34.7507 14.9354 35.2024C14.9354 35.6541 15.0756 36.0357 15.3559 36.3316C15.6363 36.6275 15.9945 36.7755 16.4306 36.7755C16.6292 36.7755 16.82 36.7405 17.0069 36.6704C17.1938 36.6003 17.3807 36.4951 17.5715 36.355V37.2311C17.3885 37.3323 17.1938 37.4102 16.9875 37.4569C16.7811 37.5075 16.5669 37.5309 16.3411 37.5309C16.1152 37.5309 15.9127 37.4998 15.6986 37.4336C15.4844 37.3674 15.2936 37.2778 15.1223 37.161C14.7952 36.939 14.546 36.6626 14.3747 36.3316C14.1994 36.0006 14.1138 35.6307 14.1138 35.2218C14.1138 34.556 14.3279 34.0069 14.7602 33.5747C15.1885 33.1386 15.7375 32.9244 16.3995 32.9244C16.8356 32.9244 17.2367 33.0335 17.5988 33.2476C17.9609 33.4618 18.2374 33.7538 18.436 34.1277C18.5255 34.2951 18.5879 34.482 18.6268 34.6845C18.6657 34.887 18.6852 35.1868 18.6852 35.584V37.4686H17.8597L17.8519 37.4608Z" fill="#134B94"/>
<path d="M19.7246 37.4606V30.9462H20.5384V34.6142H20.9006C21.1342 34.6142 21.325 34.5675 21.473 34.474C21.6209 34.3806 21.7806 34.1937 21.9519 33.9172L22.536 32.9905H23.4939L22.8164 34.0574C22.6956 34.2482 22.5788 34.4039 22.4659 34.5324C22.353 34.657 22.2401 34.7427 22.1388 34.7933C22.5165 34.8634 22.793 35.0153 22.9721 35.2489C23.1512 35.4825 23.2408 35.8096 23.2408 36.2341V37.4606H22.4153V36.3353C22.4153 36.0121 22.3413 35.7746 22.1972 35.6266C22.0532 35.4748 21.8234 35.4008 21.5119 35.4008H20.5384V37.4606H19.7246Z" fill="#134B94"/>
<path d="M27.6917 37.4608V35.2257C27.6917 34.7663 27.5554 34.3885 27.2867 34.0965C27.0181 33.8084 26.6676 33.6604 26.2393 33.6604C25.811 33.6604 25.4605 33.8045 25.1879 34.0926C24.9115 34.3808 24.7752 34.7507 24.7752 35.2024C24.7752 35.6541 24.9154 36.0357 25.1957 36.3316C25.4761 36.6275 25.8343 36.7755 26.2704 36.7755C26.469 36.7755 26.6598 36.7405 26.8467 36.6704C27.0336 36.6003 27.2206 36.4951 27.4075 36.355V37.2311C27.2244 37.3323 27.0259 37.4102 26.8234 37.4569C26.617 37.5075 26.4028 37.5309 26.177 37.5309C25.9511 37.5309 25.7487 37.4998 25.5345 37.4336C25.3203 37.3674 25.1295 37.2778 24.9543 37.161C24.6272 36.939 24.378 36.6626 24.2028 36.3316C24.0276 36.0006 23.9419 35.6307 23.9419 35.2218C23.9419 34.556 24.1561 34.0069 24.5883 33.5747C25.0205 33.1386 25.5656 32.9244 26.2276 32.9244C26.6637 32.9244 27.0648 33.0335 27.423 33.2476C27.7852 33.4618 28.0616 33.7538 28.2602 34.1277C28.3498 34.2951 28.4121 34.482 28.451 34.6845C28.49 34.887 28.5094 35.1868 28.5094 35.584V37.4686H27.6839L27.6917 37.4608Z" fill="#134B94"/>
<path d="M29.5605 37.4606V32.6011C29.5605 32.0481 29.7202 31.6354 30.0395 31.3589C30.3588 31.0825 30.8416 30.9462 31.488 30.9462H31.9825V31.7016H31.5075C31.1142 31.7016 30.826 31.7872 30.643 31.9508C30.4639 32.1182 30.3705 32.3791 30.3705 32.7374V32.9866H31.9825V33.742H30.3705V37.4568H29.5566L29.5605 37.4606Z" fill="#134B94"/>
<path d="M36.3285 32.9905V35.4358C36.3285 36.0861 36.1533 36.5962 35.8029 36.9778C35.4524 37.3555 34.9812 37.5463 34.3894 37.5463C33.7975 37.5463 33.3341 37.3555 32.9837 36.9778C32.6332 36.6001 32.458 36.0861 32.458 35.4358V32.9905H33.2718V35.576C33.2718 35.9304 33.377 36.2185 33.5872 36.4405C33.7975 36.6624 34.0662 36.7753 34.3933 36.7753C34.7204 36.7753 34.9929 36.6624 35.1993 36.4405C35.4096 36.2185 35.5108 35.9304 35.5108 35.576V32.9905H36.3246H36.3285Z" fill="#134B94"/>
<path d="M38.2133 30.9423H37.4033V37.4567H38.2133V30.9423Z" fill="#134B94"/>
</svg>
