<svg width="48" height="48" viewBox="0 0 48 48" fill="none" xmlns="http://www.w3.org/2000/svg">
<g clip-path="url(#clip0_11312_64138)">
<path d="M16.3935 22.7107L16.4201 22.6656V21.6214C16.4201 16.896 19.2855 12.7378 23.6672 10.8672C28.0488 12.7378 30.918 16.9035 30.918 21.6176L30.9446 38.2428H16.3973V22.7144L16.3935 22.7107ZM12.0271 21.6214L12.0005 21.6627V42.3334H35.3338L35.3034 21.6552V21.6138C35.3034 14.4394 30.4049 8.36927 23.6596 6.33337C16.9142 8.37302 12.0233 14.4469 12.0233 21.6176" fill="url(#paint0_linear_11312_64138)"/>
<path d="M21.7177 22.9248L21.7291 22.9135V22.6281C21.7291 21.3584 22.5006 20.2391 23.6786 19.7357C24.8567 20.2391 25.6281 21.3584 25.6281 22.6281L25.6395 33.232H21.7253V22.9248H21.7177ZM23.5722 18.5563C21.8089 19.131 20.5435 20.7387 20.5435 22.6318V34.31H26.8138L26.8024 22.6431V22.6318C26.8024 20.7424 25.5369 19.1347 23.7812 18.5563H23.5722Z" fill="url(#paint1_linear_11312_64138)"/>
<path d="M19.7149 21.749V22.3237L19.6997 22.35V35.1777H27.6459L27.6307 21.749C27.6307 19.1572 26.0651 16.8734 23.6709 15.8479C21.2768 16.8772 19.7149 19.161 19.7149 21.7565M17.3094 21.7565C17.3094 17.8162 19.9809 14.4769 23.6709 13.3575C27.3571 14.4769 30.0249 17.82 30.0249 21.7565V21.7791L30.0477 37.5141H17.3018V21.7753L17.317 21.7528H17.3132V21.7565H17.3094Z" fill="#D1D3D4"/>
</g>
<defs>
<linearGradient id="paint0_linear_11312_64138" x1="12.0005" y1="24.3334" x2="35.3338" y2="24.3334" gradientUnits="userSpaceOnUse">
<stop stop-color="#00436A"/>
<stop offset="0.51" stop-color="#006EA2"/>
<stop offset="1" stop-color="#009BDB"/>
</linearGradient>
<linearGradient id="paint1_linear_11312_64138" x1="20.5435" y1="26.4332" x2="26.8138" y2="26.4332" gradientUnits="userSpaceOnUse">
<stop stop-color="#00652E"/>
<stop offset="0.13" stop-color="#007938"/>
<stop offset="0.37" stop-color="#00994A"/>
<stop offset="0.5" stop-color="#00A651"/>
<stop offset="0.67" stop-color="#009447"/>
<stop offset="0.99" stop-color="#00652E"/>
<stop offset="1" stop-color="#00652E"/>
</linearGradient>
<clipPath id="clip0_11312_64138">
<rect width="23.3333" height="36" fill="white" transform="translate(12.0005 6.33337)"/>
</clipPath>
</defs>
</svg>
