<svg width="48" height="48" viewBox="0 0 48 48" fill="none" xmlns="http://www.w3.org/2000/svg">
<path d="M33.3723 22.0309C33.3723 22.0309 32.1853 23.1075 31.2552 21.6309L31.1032 21.819L31.1475 21.9109L31.3029 22.0316L31.7485 22.3484L32.0736 22.6298L32.481 22.7484L32.926 22.8077H33.2967L33.6892 22.7334L33.8302 22.6516V22.4295L33.3723 22.0316" fill="url(#paint0_linear_11312_64192)"/>
<path d="M26.2109 22.214C26.2184 22.2215 26.23 22.2242 26.2457 22.2242C26.2307 22.2242 26.2184 22.2215 26.2109 22.214Z" fill="url(#paint1_linear_11312_64192)"/>
<path d="M11.1275 18.7662H16.2211L17.0837 16.059L20.2952 15.522C20.8955 15.4219 21.4761 15.2283 22.0165 14.949L22.2372 14.8345L18.5992 11.1964C18.2442 10.8414 18.176 10.3099 18.3825 9.87109H11.1275C10.4829 9.87109 9.96094 10.408 9.96094 11.069V17.569C9.96094 17.7155 9.98683 17.8559 10.0338 17.986C10.1987 18.4419 10.626 18.7669 11.1275 18.7669V18.7662Z" fill="url(#paint2_linear_11312_64192)"/>
<path d="M18.5994 11.1964L22.2374 14.8345L24.0009 13.9234V11.069C24.0009 10.408 23.4783 9.87109 22.835 9.87109H18.3834C18.1769 10.3099 18.245 10.8414 18.6001 11.1964H18.5994Z" fill="url(#paint3_linear_11312_64192)"/>
<path d="M24.8887 4.90712C24.4335 4.45194 23.6853 4.46148 23.2172 4.92961L18.6211 9.52573C18.5175 9.6293 18.4405 9.74718 18.3819 9.87188C18.1754 10.3107 18.2436 10.8422 18.5986 11.1972L22.2366 14.8353L24.0001 13.9242L24.9084 13.4547L27.5591 15.3457C28.0545 15.6993 28.6017 15.9726 29.1816 16.1572L29.2354 16.1743V11.1284C29.2354 10.6269 29.5625 10.2024 30.019 10.0381L24.8894 4.90849L24.8887 4.90712Z" fill="url(#paint4_linear_11312_64192)"/>
<path d="M29.2349 11.1278V16.1736L31.2007 16.7999L33.1441 14.8565C33.6116 14.389 33.6218 13.6408 33.1666 13.185L30.0185 10.0369C29.5619 10.2011 29.2349 10.6256 29.2349 11.1271V11.1278Z" fill="url(#paint5_linear_11312_64192)"/>
<path d="M36.9319 9.96118H30.4326C30.2868 9.96118 30.1484 9.99048 30.019 10.0368C29.5624 10.201 29.2354 10.6256 29.2354 11.1271V16.1729L31.2012 16.7991L32.284 17.1439L32.8209 20.3554C32.9184 20.9387 33.1058 21.5029 33.3722 22.031L36.8045 18.5987C37.1595 18.2437 37.6903 18.1756 38.1298 18.3821V11.1271C38.1298 10.4831 37.5935 9.96118 36.9326 9.96118H36.9319Z" fill="url(#paint6_linear_11312_64192)"/>
<path d="M36.8734 29.235H32.1887C32.1887 29.235 32.1867 29.2398 32.186 29.2425L31.4746 31.4748L33.1441 33.1442C33.6115 33.6117 34.3597 33.6219 34.8156 33.1667L37.9637 30.0186C37.7995 29.5621 37.3749 29.235 36.8734 29.235Z" fill="url(#paint7_linear_11312_64192)"/>
<path d="M37.9635 30.0186C37.7993 29.5621 37.3748 29.235 36.8733 29.235H32.1886C32.1886 29.235 32.1865 29.2398 32.1859 29.2425L31.4745 31.4748L31.1971 32.3443L27.9856 32.8812C27.3853 32.9814 26.8048 33.1749 26.2644 33.4543L26.124 33.5272L29.4009 36.8041C29.7559 37.1591 29.8241 37.6899 29.6176 38.1294H36.8726C37.5165 38.1294 38.0385 37.5932 38.0385 36.9322V30.4329C38.0385 30.2871 38.0092 30.1488 37.9629 30.0193L37.9635 30.0186Z" fill="url(#paint8_linear_11312_64192)"/>
<path d="M29.4018 36.8042L26.1249 33.5273L24.001 34.6251V36.9317C24.001 37.5933 24.5229 38.1289 25.1669 38.1289H29.6185C29.825 37.6901 29.7569 37.1586 29.4018 36.8036V36.8042Z" fill="url(#paint9_linear_11312_64192)"/>
<path d="M29.4017 36.8036L26.1248 33.5267L24.0008 34.6244L23.3733 34.9488L20.7226 33.0579C20.2272 32.7049 19.68 32.431 19.1001 32.2463L18.7656 32.14V36.8731C18.7656 37.3746 18.4385 37.7991 17.9819 37.9634L23.1116 43.093C23.5668 43.5482 24.315 43.5387 24.7831 43.0705L29.3792 38.4744C29.4828 38.3708 29.5598 38.253 29.6184 38.1283C29.8249 37.6894 29.7567 37.1579 29.4017 36.8029V36.8036Z" fill="url(#paint10_linear_11312_64192)"/>
<path d="M18.7666 36.8735V32.1405L16.5629 31.4386L14.8573 33.1442C14.3899 33.6116 14.3797 34.3598 14.8349 34.8157L17.983 37.9638C18.4395 37.7996 18.7666 37.375 18.7666 36.8735Z" fill="url(#paint11_linear_11312_64192)"/>
<path d="M16.5624 31.4384L15.9981 31.2585L15.4612 28.047C15.361 27.4467 15.1675 26.8662 14.8881 26.3258L14.6783 25.9197L11.1969 29.4017C10.8419 29.756 10.3111 29.8242 9.87158 29.6177V36.8727C9.87158 37.5166 10.4079 38.0386 11.0688 38.0386H17.5681C17.7139 38.0386 17.8523 38.0093 17.9817 37.9629C18.4383 37.7987 18.7654 37.3742 18.7654 36.8727V32.1396L16.5617 31.4377L16.5624 31.4384Z" fill="url(#paint12_linear_11312_64192)"/>
<path d="M11.1962 29.4018L14.6776 25.9198L13.6854 24.0002H11.0688C10.4072 24.0002 9.87158 24.5222 9.87158 25.1661V29.6178C10.3104 29.8243 10.8419 29.7561 11.1969 29.4018H11.1962Z" fill="url(#paint13_linear_11312_64192)"/>
<path d="M34.5708 22.5481L33.3286 22.6095C33.2502 22.6136 33.1739 22.6252 33.0996 22.6429C32.1559 22.6149 31.6169 22.4916 31.3689 21.8184C31.2564 21.9683 31.1617 21.8926 31.0063 22.001C31.7082 22.1931 32.021 22.7703 32.1375 23.7733C32.1341 23.8238 32.132 23.8755 32.1348 23.9273L32.1961 25.1695C32.2302 25.8632 32.8203 26.3974 33.5139 26.3634L34.7562 26.302C35.4498 26.268 35.9841 25.6779 35.95 24.9842L35.8887 23.742C35.8546 23.0483 35.2645 22.5141 34.5708 22.5481Z" fill="url(#paint14_linear_11312_64192)"/>
<path d="M32.4428 28.9943C32.4013 28.952 32.3638 28.9071 32.3229 28.8641C32.2745 28.9861 32.2282 29.1094 32.188 29.2348H32.699C32.6111 29.1578 32.5253 29.0781 32.4428 28.9943Z" fill="url(#paint15_linear_11312_64192)"/>
<path d="M24.4907 22.3641C24.505 22.3648 24.5187 22.3655 24.5323 22.3669C24.518 22.3662 24.5044 22.3655 24.4907 22.3641Z" fill="url(#paint16_linear_11312_64192)"/>
<path d="M25.3567 22.414C25.1278 22.4112 24.862 22.3867 24.5322 22.3669C24.862 22.3867 25.1278 22.4106 25.3567 22.414Z" fill="url(#paint17_linear_11312_64192)"/>
<path d="M24.313 22.3555C24.3743 22.3582 24.4329 22.3616 24.4902 22.3643C24.4329 22.3609 24.3743 22.3582 24.313 22.3555Z" fill="url(#paint18_linear_11312_64192)"/>
<path d="M43.0716 23.2174L38.4755 18.6213C38.3719 18.5177 38.254 18.4407 38.1293 18.3821C37.6905 18.1757 37.159 18.2445 36.804 18.5988L33.3717 22.0311C33.3717 22.0311 32.2017 23.0913 31.2743 21.6604C31.0494 21.2618 30.9425 20.7432 30.9609 20.0645C30.9711 20.0012 30.9779 19.9364 30.9813 19.8703C30.9868 19.7681 30.9813 19.6686 30.9704 19.5705L30.9867 19.2598C31.0235 18.5661 30.4914 17.974 29.7977 17.9372L28.5555 17.8711C27.8618 17.8343 27.2697 18.3664 27.2329 19.0601L27.1668 20.3023C27.1627 20.3752 27.1668 20.4461 27.1749 20.5163C27.1116 20.8516 27.0196 21.1446 26.8976 21.396C26.8874 21.4178 26.8772 21.4396 26.8663 21.4607C26.8349 21.5214 26.8002 21.5786 26.7647 21.6345C26.747 21.6624 26.7286 21.6897 26.7102 21.7156C26.6755 21.7646 26.64 21.8123 26.6019 21.8573C26.578 21.8859 26.5521 21.9125 26.5269 21.9391C26.4888 21.9793 26.4513 22.0195 26.4097 22.0556C26.3797 22.0822 26.347 22.106 26.3157 22.1306C26.0159 22.3656 25.7372 22.4195 25.3569 22.414C25.5634 22.7731 25.8155 23.105 26.1092 23.4034C26.2169 22.8631 26.3981 22.4365 26.6673 22.1142C26.6612 22.1053 26.6503 22.1019 26.6359 22.1013C26.6503 22.1013 26.6612 22.1053 26.6673 22.1142C26.6673 22.1142 26.668 22.1149 26.6686 22.1156C27.0475 21.6624 27.4318 21.582 28.1105 21.5868C28.1896 21.6072 28.272 21.6202 28.3572 21.625L29.5994 21.6911C29.6648 21.6945 29.7289 21.6911 29.7922 21.6849C30.689 21.8096 31.3554 22.0665 31.7765 22.5612C31.9659 22.8569 32.0784 23.259 32.1383 23.7741C32.1349 23.8245 32.1329 23.8763 32.1356 23.9281L32.1969 25.1703C32.231 25.864 32.8211 26.3982 33.5148 26.3642L33.908 26.3444L32.9976 27.62C32.646 28.1133 32.3727 28.6578 32.1888 29.2349H36.8735C37.375 29.2349 37.7995 29.562 37.9637 30.0186L43.0934 24.8882C43.5486 24.433 43.539 23.6849 43.0709 23.2167L43.0716 23.2174Z" fill="url(#paint19_linear_11312_64192)"/>
<path d="M24.5331 22.367C24.5188 22.3663 24.5051 22.3656 24.4915 22.3643C24.4343 22.3609 24.3757 22.3581 24.3143 22.3554C24.2796 22.3513 24.2448 22.3486 24.2094 22.3466C24.1787 22.3452 24.1481 22.3438 24.1174 22.3438C22.2497 22.2103 21.7659 21.8484 21.7454 20.3159C21.7543 20.2655 21.7611 20.2151 21.7638 20.1626L21.8299 18.9204C21.8667 18.2267 21.3345 17.6346 20.6408 17.5978L20.0119 17.5644L19.3986 17.5317C18.705 17.4949 18.1128 18.0271 18.076 18.7208L18.0099 19.963C17.9731 20.6567 18.5053 21.2488 19.199 21.2856L20.4412 21.3517C20.5196 21.3558 20.5966 21.3517 20.6715 21.3422C21.8701 21.5016 22.2367 21.905 22.311 23.1268C22.3171 23.2024 22.3273 23.3728 22.3253 23.6085C22.3253 23.6365 22.3267 23.6617 22.3267 23.6896C22.3253 23.6937 22.3253 23.6978 22.3239 23.7012C22.3171 24.0092 22.2885 24.4065 22.2047 24.8378C22.2033 24.846 22.202 24.8514 22.1999 24.8589C21.9934 26.249 21.447 26.7451 20.0964 26.8037C20.0392 26.7928 19.9806 26.7839 19.9206 26.7805L18.6784 26.7144C18.6048 26.7103 18.5326 26.7144 18.4617 26.7226C17.4593 26.587 16.7507 26.1195 16.352 25.4981C16.228 25.2303 16.1497 24.893 16.1006 24.4712C16.104 24.4208 16.1061 24.369 16.1033 24.3172L16.0563 23.3666C16.059 23.3298 16.0624 23.2917 16.0659 23.2528C16.0618 23.2583 16.0563 23.2637 16.0515 23.2692L16.042 23.0743C16.0079 22.3806 15.4178 21.8464 14.7242 21.8805L14.4925 21.8921L15.2829 20.7841C15.6359 20.2887 15.9098 19.7415 16.0945 19.1616L16.2205 18.7664H11.127C10.6255 18.7664 10.1982 18.4414 10.0333 17.9855L4.90639 23.1125C4.45121 23.5676 4.46075 24.3158 4.92888 24.7833L9.52431 29.3794C9.62788 29.483 9.74645 29.56 9.87115 29.6186C10.31 29.825 10.8415 29.7569 11.1965 29.4026L14.6662 25.9321L14.6819 25.9424C14.6819 25.9424 15.3367 25.4899 16.0495 25.7522C16.3262 25.8824 16.5592 26.0582 16.7466 26.2803C16.8038 26.3519 16.8604 26.4296 16.9149 26.5168V26.5154C16.9353 26.5461 16.9551 26.5768 16.9728 26.6088C16.9462 26.5665 16.9272 26.5365 16.919 26.5236C16.9381 26.5536 16.9551 26.5808 16.9728 26.6088C17.2236 27.0619 17.3401 27.6527 17.3162 28.3825C17.3162 28.3825 17.3162 28.3832 17.3162 28.3839C17.3087 28.437 17.3033 28.4915 17.3006 28.546C17.2958 28.6414 17.2992 28.7348 17.3081 28.8268L17.291 29.1429C17.2542 29.8366 17.7864 30.4288 18.4801 30.4656L19.0627 30.4969L19.7216 30.5323C20.4153 30.5691 21.0074 30.037 21.0442 29.3433L21.1103 28.1011C21.1151 28.0152 21.1103 27.93 21.0988 27.8483C21.3536 26.3376 22.0725 25.9614 23.9654 26.0473C24.0002 26.0514 24.035 26.0541 24.0697 26.0562C24.1004 26.0575 24.131 26.0589 24.161 26.0589C26.0288 26.1918 26.5132 26.5543 26.5337 28.0874C26.5248 28.1379 26.518 28.1883 26.5153 28.2408L26.4492 29.483C26.4124 30.1766 26.9446 30.7688 27.6383 30.8056L28.8805 30.8717C29.5741 30.9085 30.1663 30.3763 30.2031 29.6826L30.2692 28.4404C30.306 27.7467 29.7738 27.1546 29.0801 27.1178L27.8379 27.0517C27.7595 27.0476 27.6825 27.0517 27.6069 27.0612C26.3149 26.8888 25.9906 26.433 25.9558 24.9741C25.9558 24.97 25.9558 24.9673 25.9552 24.9632C25.9524 24.9025 25.9524 24.8398 25.9531 24.7765C25.9531 24.7553 25.9524 24.7356 25.9524 24.7138C25.9531 24.711 25.9538 24.7083 25.9545 24.7063C25.9702 24.0807 26.1112 23.4021 26.1112 23.4021C25.8182 23.1036 25.5661 22.7718 25.3589 22.4127C25.13 22.4099 24.8642 22.3854 24.5344 22.3656L24.5331 22.367Z" fill="url(#paint20_linear_11312_64192)"/>
<path d="M24.5331 22.367C24.5188 22.3663 24.5051 22.3656 24.4915 22.3643C24.4343 22.3609 24.3757 22.3581 24.3143 22.3554C24.2796 22.3513 24.2448 22.3486 24.2094 22.3466C24.1787 22.3452 24.1481 22.3438 24.1174 22.3438C22.2497 22.2103 21.7659 21.8484 21.7454 20.3159C21.7543 20.2655 21.7611 20.2151 21.7638 20.1626L21.8299 18.9204C21.8667 18.2267 21.3345 17.6346 20.6408 17.5978L20.0119 17.5644L19.3986 17.5317C18.705 17.4949 18.1128 18.0271 18.076 18.7208L18.0099 19.963C17.9731 20.6567 18.5053 21.2488 19.199 21.2856L20.4412 21.3517C20.5196 21.3558 20.5966 21.3517 20.6715 21.3422C21.8701 21.5016 22.2367 21.905 22.311 23.1268C22.3171 23.2024 22.3273 23.3728 22.3253 23.6085C22.3253 23.6365 22.3267 23.6617 22.3267 23.6896C22.3253 23.6937 22.3253 23.6978 22.3239 23.7012C22.3171 24.0092 22.2885 24.4065 22.2047 24.8378C22.2033 24.846 22.202 24.8514 22.1999 24.8589C21.9934 26.249 21.447 26.7451 20.0964 26.8037C20.0392 26.7928 19.9806 26.7839 19.9206 26.7805L18.6784 26.7144C18.6048 26.7103 18.5326 26.7144 18.4617 26.7226C17.4593 26.587 16.7507 26.1195 16.352 25.4981C16.228 25.2303 16.1497 24.893 16.1006 24.4712C16.104 24.4208 16.1061 24.369 16.1033 24.3172L16.0563 23.3666C16.059 23.3298 16.0624 23.2917 16.0659 23.2528C16.0618 23.2583 16.0563 23.2637 16.0515 23.2692L16.042 23.0743C16.0079 22.3806 15.4178 21.8464 14.7242 21.8805L14.4925 21.8921L15.2829 20.7841C15.6359 20.2887 15.9098 19.7415 16.0945 19.1616L16.2205 18.7664H11.127C10.6255 18.7664 10.1982 18.4414 10.0333 17.9855L4.90639 23.1125C4.45121 23.5676 4.46075 24.3158 4.92888 24.7833L9.52431 29.3794C9.62788 29.483 9.74645 29.56 9.87115 29.6186C10.31 29.825 10.8415 29.7569 11.1965 29.4026L14.6662 25.9321L14.6819 25.9424C14.6819 25.9424 15.3367 25.4899 16.0495 25.7522C16.3262 25.8824 16.5592 26.0582 16.7466 26.2803C16.8038 26.3519 16.8604 26.4296 16.9149 26.5168V26.5154C16.9353 26.5461 16.9551 26.5768 16.9728 26.6088C16.9462 26.5665 16.9272 26.5365 16.919 26.5236C16.9381 26.5536 16.9551 26.5808 16.9728 26.6088C17.2236 27.0619 17.3401 27.6527 17.3162 28.3825C17.3162 28.3825 17.3162 28.3832 17.3162 28.3839C17.3087 28.437 17.3033 28.4915 17.3006 28.546C17.2958 28.6414 17.2992 28.7348 17.3081 28.8268L17.291 29.1429C17.2542 29.8366 17.7864 30.4288 18.4801 30.4656L19.0627 30.4969L19.7216 30.5323C20.4153 30.5691 21.0074 30.037 21.0442 29.3433L21.1103 28.1011C21.1151 28.0152 21.1103 27.93 21.0988 27.8483C21.3536 26.3376 22.0725 25.9614 23.9654 26.0473C24.0002 26.0514 24.035 26.0541 24.0697 26.0562C24.1004 26.0575 24.131 26.0589 24.161 26.0589C26.0288 26.1918 26.5132 26.5543 26.5337 28.0874C26.5248 28.1379 26.518 28.1883 26.5153 28.2408L26.4492 29.483C26.4124 30.1766 26.9446 30.7688 27.6383 30.8056L28.8805 30.8717C29.5741 30.9085 30.1663 30.3763 30.2031 29.6826L30.2692 28.4404C30.306 27.7467 29.7738 27.1546 29.0801 27.1178L27.8379 27.0517C27.7595 27.0476 27.6825 27.0517 27.6069 27.0612C26.3149 26.8888 25.9906 26.433 25.9558 24.9741C25.9558 24.97 25.9558 24.9673 25.9552 24.9632C25.9524 24.9025 25.9524 24.8398 25.9531 24.7765C25.9531 24.7553 25.9524 24.7356 25.9524 24.7138C25.9531 24.711 25.9538 24.7083 25.9545 24.7063C25.9702 24.0807 26.1112 23.4021 26.1112 23.4021C25.8182 23.1036 25.5661 22.7718 25.3589 22.4127C25.13 22.4099 24.8642 22.3854 24.5344 22.3656L24.5331 22.367Z" fill="url(#paint21_linear_11312_64192)"/>
<defs>
<linearGradient id="paint0_linear_11312_64192" x1="34.5048" y1="21.511" x2="29.6109" y2="22.2741" gradientUnits="userSpaceOnUse">
<stop stop-color="#2A81C4"/>
<stop offset="0.32" stop-color="#1E94D2"/>
<stop offset="0.71" stop-color="#15A5DE"/>
<stop offset="1" stop-color="#12ABE3"/>
</linearGradient>
<linearGradient id="paint1_linear_11312_64192" x1="38.6953" y1="20.2761" x2="1.66003" y2="26.0495" gradientUnits="userSpaceOnUse">
<stop stop-color="#2A81C4"/>
<stop offset="0.32" stop-color="#1E94D2"/>
<stop offset="0.71" stop-color="#15A5DE"/>
<stop offset="1" stop-color="#12ABE3"/>
</linearGradient>
<linearGradient id="paint2_linear_11312_64192" x1="20.687" y1="14.3187" x2="10.0611" y2="14.3187" gradientUnits="userSpaceOnUse">
<stop stop-color="#2A81C4"/>
<stop offset="0.32" stop-color="#1E94D2"/>
<stop offset="0.71" stop-color="#15A5DE"/>
<stop offset="1" stop-color="#12ABE3"/>
</linearGradient>
<linearGradient id="paint3_linear_11312_64192" x1="20.9993" y1="12.0393" x2="11.1958" y2="19.3011" gradientUnits="userSpaceOnUse">
<stop stop-color="#2A81C4"/>
<stop offset="0.32" stop-color="#1E94D2"/>
<stop offset="0.71" stop-color="#15A5DE"/>
<stop offset="1" stop-color="#12ABE3"/>
</linearGradient>
<linearGradient id="paint4_linear_11312_64192" x1="28.6249" y1="14.9327" x2="20.9644" y2="7.2723" gradientUnits="userSpaceOnUse">
<stop stop-color="#2A81C4"/>
<stop offset="0.32" stop-color="#1E94D2"/>
<stop offset="0.71" stop-color="#15A5DE"/>
<stop offset="1" stop-color="#12ABE3"/>
</linearGradient>
<linearGradient id="paint5_linear_11312_64192" x1="29.8372" y1="13.3301" x2="18.2192" y2="11.9986" gradientUnits="userSpaceOnUse">
<stop stop-color="#2A81C4"/>
<stop offset="0.32" stop-color="#1E94D2"/>
<stop offset="0.71" stop-color="#15A5DE"/>
<stop offset="1" stop-color="#12ABE3"/>
</linearGradient>
<linearGradient id="paint6_linear_11312_64192" x1="33.6816" y1="21.3884" x2="33.6816" y2="10.9206" gradientUnits="userSpaceOnUse">
<stop stop-color="#2A81C4"/>
<stop offset="0.32" stop-color="#1E94D2"/>
<stop offset="0.71" stop-color="#15A5DE"/>
<stop offset="1" stop-color="#12ABE3"/>
</linearGradient>
<linearGradient id="paint7_linear_11312_64192" x1="34.6023" y1="30.116" x2="41.9847" y2="22.4917" gradientUnits="userSpaceOnUse">
<stop stop-color="#2A81C4"/>
<stop offset="0.32" stop-color="#1E94D2"/>
<stop offset="0.71" stop-color="#15A5DE"/>
<stop offset="1" stop-color="#12ABE3"/>
</linearGradient>
<linearGradient id="paint8_linear_11312_64192" x1="27.1495" y1="33.6819" x2="37.9179" y2="33.6819" gradientUnits="userSpaceOnUse">
<stop stop-color="#2A81C4"/>
<stop offset="0.32" stop-color="#1E94D2"/>
<stop offset="0.71" stop-color="#15A5DE"/>
<stop offset="1" stop-color="#12ABE3"/>
</linearGradient>
<linearGradient id="paint9_linear_11312_64192" x1="27.6179" y1="35.9586" x2="36.3318" y2="31.4811" gradientUnits="userSpaceOnUse">
<stop stop-color="#2A81C4"/>
<stop offset="0.32" stop-color="#1E94D2"/>
<stop offset="0.71" stop-color="#15A5DE"/>
<stop offset="1" stop-color="#12ABE3"/>
</linearGradient>
<linearGradient id="paint10_linear_11312_64192" x1="19.1424" y1="32.8344" x2="26.999" y2="40.6904" gradientUnits="userSpaceOnUse">
<stop stop-color="#2A81C4"/>
<stop offset="0.32" stop-color="#1E94D2"/>
<stop offset="0.71" stop-color="#15A5DE"/>
<stop offset="1" stop-color="#12ABE3"/>
</linearGradient>
<linearGradient id="paint11_linear_11312_64192" x1="18.0191" y1="34.8191" x2="28.1857" y2="41.4758" gradientUnits="userSpaceOnUse">
<stop stop-color="#2A81C4"/>
<stop offset="0.32" stop-color="#1E94D2"/>
<stop offset="0.71" stop-color="#15A5DE"/>
<stop offset="1" stop-color="#12ABE3"/>
</linearGradient>
<linearGradient id="paint12_linear_11312_64192" x1="14.3185" y1="27.5544" x2="14.3185" y2="37.9909" gradientUnits="userSpaceOnUse">
<stop stop-color="#2A81C4"/>
<stop offset="0.32" stop-color="#1E94D2"/>
<stop offset="0.71" stop-color="#15A5DE"/>
<stop offset="1" stop-color="#12ABE3"/>
</linearGradient>
<linearGradient id="paint13_linear_11312_64192" x1="11.7032" y1="26.4356" x2="16.7859" y2="38.2962" gradientUnits="userSpaceOnUse">
<stop stop-color="#2A81C4"/>
<stop offset="0.32" stop-color="#1E94D2"/>
<stop offset="0.71" stop-color="#15A5DE"/>
<stop offset="1" stop-color="#12ABE3"/>
</linearGradient>
<linearGradient id="paint14_linear_11312_64192" x1="45.0942" y1="20.9054" x2="8.69839" y2="30.4804" gradientUnits="userSpaceOnUse">
<stop stop-color="#2A81C4"/>
<stop offset="0.32" stop-color="#1E94D2"/>
<stop offset="0.71" stop-color="#15A5DE"/>
<stop offset="1" stop-color="#12ABE3"/>
</linearGradient>
<linearGradient id="paint15_linear_11312_64192" x1="28.6658" y1="32.8954" x2="20.9808" y2="40.5796" gradientUnits="userSpaceOnUse">
<stop stop-color="#2A81C4"/>
<stop offset="0.32" stop-color="#1E94D2"/>
<stop offset="0.71" stop-color="#15A5DE"/>
<stop offset="1" stop-color="#12ABE3"/>
</linearGradient>
<linearGradient id="paint16_linear_11312_64192" x1="24.9105" y1="21.9668" x2="33.0523" y2="13.8269" gradientUnits="userSpaceOnUse">
<stop stop-color="#2A81C4"/>
<stop offset="0.32" stop-color="#1E94D2"/>
<stop offset="0.71" stop-color="#15A5DE"/>
<stop offset="1" stop-color="#12ABE3"/>
</linearGradient>
<linearGradient id="paint17_linear_11312_64192" x1="21.5524" y1="25.7829" x2="13.8674" y2="33.4678" gradientUnits="userSpaceOnUse">
<stop stop-color="#2A81C4"/>
<stop offset="0.32" stop-color="#1E94D2"/>
<stop offset="0.71" stop-color="#15A5DE"/>
<stop offset="1" stop-color="#12ABE3"/>
</linearGradient>
<linearGradient id="paint18_linear_11312_64192" x1="21.2657" y1="25.4955" x2="13.5823" y2="33.1803" gradientUnits="userSpaceOnUse">
<stop stop-color="#2A81C4"/>
<stop offset="0.32" stop-color="#1E94D2"/>
<stop offset="0.71" stop-color="#15A5DE"/>
<stop offset="1" stop-color="#12ABE3"/>
</linearGradient>
<linearGradient id="paint19_linear_11312_64192" x1="29.9272" y1="26.9829" x2="38.0673" y2="18.8428" gradientUnits="userSpaceOnUse">
<stop stop-color="#2A81C4"/>
<stop offset="0.32" stop-color="#1E94D2"/>
<stop offset="0.71" stop-color="#15A5DE"/>
<stop offset="1" stop-color="#12ABE3"/>
</linearGradient>
<linearGradient id="paint20_linear_11312_64192" x1="23.5621" y1="20.6178" x2="31.7022" y2="12.4777" gradientUnits="userSpaceOnUse">
<stop stop-color="#2A81C4"/>
<stop offset="0.32" stop-color="#1E94D2"/>
<stop offset="0.71" stop-color="#15A5DE"/>
<stop offset="1" stop-color="#12ABE3"/>
</linearGradient>
<linearGradient id="paint21_linear_11312_64192" x1="19.9751" y1="24.2048" x2="12.2902" y2="31.8897" gradientUnits="userSpaceOnUse">
<stop stop-color="#2A81C4"/>
<stop offset="0.32" stop-color="#1E94D2"/>
<stop offset="0.71" stop-color="#15A5DE"/>
<stop offset="1" stop-color="#12ABE3"/>
</linearGradient>
</defs>
</svg>
