<svg width="48" height="48" viewBox="0 0 48 48" fill="none" xmlns="http://www.w3.org/2000/svg">
<path d="M9.98059 19.9076H13.9291L17.5163 27.608L19.084 19.9076H23.0697L20.2478 33.8045H16.2568L12.6856 26.1891L11.1338 33.8098H7.15869L9.98059 19.9076Z" fill="#001A70"/>
<path d="M36.6002 19.9076H40.841L38.0138 33.8045H33.7729L36.6002 19.9076Z" fill="#001A70"/>
<path d="M28.4268 19.9345C28.4268 19.9345 24.0478 19.791 23.3463 23.4419L22.2569 29.4737C22.2569 29.4737 21.1409 33.842 25.9131 33.7942L32.5241 33.7517L34.1663 25.9609H29.2186L28.6022 28.7881L30.6854 28.7456L30.2974 30.51L27.0291 30.5844C27.0291 30.5844 25.6368 30.7119 25.9822 28.9582C26.3276 27.2045 26.9441 24.1275 26.9441 24.1275C26.9441 24.1275 27.1248 23.1549 28.6447 23.1868L34.7189 23.0646L35.3779 19.9026L28.4268 19.9345Z" fill="#001A70"/>
<path d="M45.7142 19.8813C39.2998 16.257 31.8917 14.1897 23.9999 14.1897C16.1082 14.1897 8.70002 16.257 2.28564 19.8813C8.90196 16.8734 16.257 15.1994 23.9999 15.1994C31.7429 15.1994 39.0979 16.8734 45.7142 19.8813Z" fill="#3DAE2B"/>
</svg>
