<svg width="48" height="48" viewBox="0 0 48 48" fill="none" xmlns="http://www.w3.org/2000/svg">
<path fill-rule="evenodd" clip-rule="evenodd" d="M28.4199 38.7663H30.6768L31.7339 33.8946H32.7489L33.0187 32.6457H32.0062L32.2462 31.547C32.4512 30.9087 33.2732 30.6831 33.8852 30.7103L34.0382 29.9972H32.6041C31.5527 29.9972 30.1742 30.4633 29.9655 31.6622L28.4199 38.7663Z" fill="#0B2674"/>
<path fill-rule="evenodd" clip-rule="evenodd" d="M9.51962 32.6954L9.7897 31.4488H8.31232L8.59633 30.1478C7.84249 30.1481 7.08875 30.1518 6.33523 30.1521L6.05452 31.4488H5.68212L5.41013 32.6954H5.78349L4.58427 38.2285C4.49141 38.6157 4.91625 38.7937 5.23621 38.7937H7.73697L7.9496 37.8216H7.42648C7.30309 37.8216 7.1647 37.7968 7.08152 37.697C7.00185 37.6014 7.00004 37.4724 7.02716 37.3584L8.04215 32.6954H9.51962Z" fill="#0B2674"/>
<path fill-rule="evenodd" clip-rule="evenodd" d="M35.7756 38.794H38.0285L39.6205 31.4481H37.3712L36.0798 37.3965C36.0466 37.5316 35.9676 37.6393 35.85 37.7126C35.7418 37.7798 35.6221 37.8132 35.4949 37.8132C35.3751 37.8132 35.2461 37.7918 35.1616 37.6989C35.0745 37.6031 35.0781 37.4815 35.1041 37.3619L36.3891 31.4481H34.1344L32.6599 38.229C32.567 38.6173 32.994 38.794 33.3143 38.794H34.5152C34.9078 38.794 35.4011 38.6678 35.7164 38.4199L35.8826 38.2893L35.7756 38.794Z" fill="#0B2674"/>
<path fill-rule="evenodd" clip-rule="evenodd" d="M14.4969 38.792L15.9704 32.0117C16.0657 31.6254 15.6388 31.4481 15.3204 31.4481H11.4346C11.0725 31.4481 10.5591 31.6606 10.4662 32.0457L10.0528 34.0192H12.3045L12.5527 32.8495C12.5822 32.7226 12.6444 32.6123 12.7484 32.532C12.8564 32.4488 12.992 32.4214 13.1259 32.4214C13.248 32.4214 13.3903 32.4431 13.4696 32.5432C13.5519 32.64 13.5532 32.7678 13.5243 32.8834L13.1144 34.7637H10.3911C10.1011 34.7637 9.86077 35.0082 9.7694 35.2615L9.12862 38.229C9.03608 38.6155 9.46092 38.794 9.78056 38.794L14.4969 38.792ZM12.2368 35.7647H12.8998L12.5467 37.3953C12.5159 37.5289 12.4439 37.6357 12.3272 37.714C12.2195 37.7795 12.0992 37.8132 11.9728 37.8132C11.8535 37.8132 11.7163 37.7921 11.6288 37.6998C11.5432 37.6046 11.545 37.4782 11.5728 37.3619L11.8369 36.1449C11.8695 35.9414 12.0178 35.7647 12.2368 35.7647Z" fill="#0B2674"/>
<path fill-rule="evenodd" clip-rule="evenodd" d="M27.248 38.792L28.7225 32.012C28.816 31.6266 28.3893 31.4481 28.0715 31.4481H24.1845C23.8207 31.4481 23.3114 31.6601 23.2158 32.0463L22.8037 34.0192H25.0554L25.3029 32.8484C25.3343 32.7223 25.3952 32.6114 25.4986 32.5327C25.606 32.4474 25.7437 32.4214 25.878 32.4214C26.0012 32.4214 26.1385 32.4434 26.2226 32.5432C26.3043 32.64 26.3043 32.7675 26.2762 32.8834L25.865 34.7637H23.1411C22.8515 34.7637 22.6122 35.0087 22.5215 35.2615L21.8797 38.229C21.7866 38.6162 22.212 38.794 22.5317 38.794L27.248 38.792ZM24.9867 35.7647H25.6518L25.2972 37.3956C25.2656 37.5301 25.195 37.6365 25.0777 37.714C24.9709 37.7795 24.8495 37.8132 24.7241 37.8132C24.6056 37.8132 24.4665 37.7915 24.3796 37.6996C24.2946 37.6043 24.2961 37.4782 24.3236 37.3619L24.5868 36.1449C24.6197 35.942 24.7683 35.7647 24.9867 35.7647Z" fill="#0B2674"/>
<path fill-rule="evenodd" clip-rule="evenodd" d="M39.3008 38.7936H41.5543L43.4283 30.1604H42.015C41.6553 30.1604 41.1397 30.3637 41.0483 30.7502L39.3008 38.7936Z" fill="#0B2674"/>
<path fill-rule="evenodd" clip-rule="evenodd" d="M22.4212 31.5741H21.387L18.6607 34.7925L19.6662 30.1615H18.253C17.893 30.1615 17.377 30.3607 17.2842 30.7479L15.5366 38.7943H17.7923L18.2467 36.7065L19.0571 38.7627H21.3176L19.7338 34.7475L22.4212 31.5741Z" fill="#0B2674"/>
<path fill-rule="evenodd" clip-rule="evenodd" d="M18.7399 25.2237L21.3185 27.7833L23.9558 25.1034L26.6962 27.7842L29.2563 25.2162L26.5841 22.5431L29.4011 19.7238L32.0778 22.3983L34.6373 19.8366L24.0111 9.20605L13.3633 19.8265L15.9417 22.3986L18.6437 19.7238L21.4318 22.5229L18.7399 25.2237ZM24.0111 19.9358L21.2218 17.1464L24.0111 14.3605L26.7974 17.1464L24.0111 19.9358Z" fill="#009DD9"/>
</svg>
