<svg width="48" height="48" viewBox="0 0 48 48" fill="none" xmlns="http://www.w3.org/2000/svg">
<path d="M16.7741 30.0765H18.5374L18.3222 31.0681C18.3222 31.0681 16.7626 30.9716 16.4441 31.9575L14.9836 38.6302H12.2017L13.645 32.044C13.645 32.044 13.9735 30.0765 16.7741 30.0765Z" fill="#005BAA"/>
<path d="M19.1256 30.8184C19.226 30.4028 19.764 30.0765 20.3264 30.0765H22.0668L20.1901 38.6288H17.4082L19.1241 30.8184H19.1256Z" fill="#005BAA"/>
<path d="M9.65071 31.7773L8.52876 36.9237C8.49289 37.0599 8.42833 37.1634 8.33077 37.2372C8.23321 37.3095 8.10552 37.3464 7.9477 37.3464C7.78988 37.3464 7.68084 37.311 7.61914 37.2372C7.55889 37.1634 7.54454 37.0599 7.57897 36.9237L8.70236 31.7773C8.73679 31.6412 8.8071 31.5404 8.91757 31.4724C9.02661 31.4043 9.14856 31.3702 9.28056 31.3702C9.43837 31.3702 9.54741 31.4043 9.61054 31.4724C9.67224 31.539 9.68658 31.6412 9.65215 31.7773M11.7999 30.0765H7.33794C6.77409 30.0765 6.23607 30.4127 6.13421 30.8298L4.58757 37.8784C4.48714 38.2954 4.86161 38.6302 5.42545 38.6302H9.88888C10.4513 38.6302 10.9879 38.2954 11.0912 37.8784L12.6378 30.8298C12.7382 30.4127 12.3638 30.0765 11.7999 30.0765Z" fill="#005BAA"/>
<path d="M25.3738 33.5306L25.7569 31.7773C25.7899 31.6412 25.8631 31.5404 25.9707 31.4724C26.0811 31.4043 26.2017 31.3702 26.3337 31.3702C26.4929 31.3702 26.6048 31.4043 26.6651 31.4724C26.7282 31.539 26.7411 31.6412 26.7081 31.7773L26.325 33.5306H25.3738ZM28.8631 30.0765H24.3882C23.8258 30.0765 23.2877 30.4141 23.1873 30.8298L21.6349 37.8784C21.5345 38.2954 21.909 38.6302 22.4714 38.6302H26.952C27.5159 38.6302 28.0539 38.2954 28.1572 37.8784L28.7411 35.1761H25.9649L25.5761 36.9237C25.5446 37.0613 25.4814 37.1634 25.3839 37.2372C25.2877 37.3095 25.1586 37.3464 25.0008 37.3464C24.843 37.3464 24.7339 37.3095 24.6722 37.2372C24.6106 37.1634 24.5962 37.0599 24.6278 36.9237L25.0869 34.847H28.8215L29.6995 30.8298C29.8 30.4141 29.4241 30.0765 28.8631 30.0765Z" fill="#005BAA"/>
<path d="M37.4758 30.8298C37.5762 30.4141 37.2018 30.0765 36.6365 30.0765H35.2505C34.3653 30.0765 33.8101 30.522 33.8101 30.522L33.9076 30.0765H31.1271L29.252 38.6288H32.0267L33.5303 31.7773C33.5647 31.6412 33.6451 31.539 33.757 31.4724C33.8646 31.4043 33.9865 31.3702 34.1171 31.3702C34.2764 31.3702 34.3768 31.4043 34.4399 31.4724C34.5016 31.539 34.5174 31.6298 34.483 31.7773L32.9794 38.6288H35.7599L37.4744 30.8284L37.4758 30.8298Z" fill="#005BAA"/>
<path d="M41.3742 31.6768H43.0786L43.4287 30.0796H41.7257L42.0514 28.5958C40.3326 28.5958 39.2623 28.6001 39.2623 28.6001L38.938 30.0796H38.5105L38.1575 31.6768H38.5865L37.2264 37.8786C37.1288 38.2928 37.5033 38.6304 38.0657 38.6304H41.0227L41.3053 37.3466H40.5923C40.433 37.3466 40.3225 37.3112 40.2623 37.2388C40.2006 37.1651 40.1862 37.0615 40.2192 36.9253L41.3727 31.6783L41.3742 31.6768Z" fill="#005BAA"/>
<path d="M24.0097 19.2051L26.4907 16.7522L24.0097 14.3009L21.5271 16.7522L24.0097 19.2051ZM21.5152 21.6782L19.0342 19.2152L16.5295 21.6681L14.0332 19.2084L24.0097 9.36987L33.9658 19.2169L31.4883 21.6698L29.0056 19.2169L26.4992 21.6967L28.9784 24.1479L26.4992 26.6025L23.9604 24.1479L21.5169 26.6025L19.0223 24.1563L21.5169 21.6799L21.5152 21.6782Z" fill="#00AEEF"/>
</svg>
