<svg width="48" height="48" viewBox="0 0 48 48" fill="none" xmlns="http://www.w3.org/2000/svg">
<path d="M24.5164 18.5008H27.347V18.9297H26.2958C26.0074 18.9297 25.783 19.0556 25.783 19.3604V24.7295C25.783 25.0361 26.0074 25.162 26.2958 25.162H27.347V25.5909H21.7188V25.162H22.7699C23.0638 25.162 23.2846 25.0361 23.2846 24.7295V19.3586C23.2846 19.0538 23.0638 18.9279 22.7699 18.9279H21.7188V18.499H24.5164V18.5008Z" fill="#A2224B"/>
<path d="M35.384 17.8951C38.8715 17.6816 42.5287 18.4061 42.5287 18.4061L43.0671 18.939C26.9435 16.311 30.723 29.1296 44.8811 23.9449L44.9998 24.0672C39.3405 27.4762 29.2101 26.4433 29.1699 21.8754C29.1663 18.9627 32.2669 18.0831 35.384 17.8951Z" fill="#A2224B"/>
<path d="M15.2839 26.018C21.0253 27.1513 24.1843 30.8523 30.8071 28.52C24.2847 32.6536 17.9666 27.7645 12.1887 26.31C8.08073 26.3282 3.79021 24.9522 3 22.0322H5.68636C5.40714 26.5125 17.2074 26.4213 17.0888 22.16C17.0888 22.16 16.8643 17.2818 6.8142 19.428C6.65177 19.4572 6.6317 19.2272 6.80325 19.1469C10.6722 17.2307 19.9777 17.4406 20.288 22.0231C20.3884 24.1036 18.1674 25.4577 15.2839 26.018Z" fill="#A2224B"/>
</svg>
