<svg width="48" height="48" viewBox="0 0 48 48" fill="none" xmlns="http://www.w3.org/2000/svg">
<path d="M38.5506 26.2866C38.2363 28.9406 36.8744 31.3571 34.7686 33.0019L29.8378 36.8677C25.6962 40.1048 19.7597 39.6124 16.2047 35.7362C16.7704 35.8899 17.3466 35.9981 17.9298 36.068C18.4397 36.1308 18.9495 36.1623 19.4663 36.1588C22.267 36.1588 24.9873 35.2194 27.1838 33.4838L28.7099 32.2895L32.7677 29.1082C34.9956 27.2958 35.3344 24.0168 33.522 21.7888C31.755 19.6168 28.5877 19.2326 26.3527 20.9158L21.7257 24.5476C20.5663 25.5044 18.8517 25.3403 17.8949 24.1809C16.9381 23.0215 17.1022 21.3069 18.2616 20.3501C18.2965 20.3187 18.3349 20.2907 18.3698 20.2628L22.3508 17.1444C26.7299 13.7151 33.0575 14.4869 36.4867 18.866C38.1315 20.9647 38.8753 23.6327 38.5541 26.2831L38.5506 26.2866ZM13.2295 15.6777L18.1603 11.8119C22.3089 8.57478 28.2524 9.07415 31.8004 12.9608C28.0953 11.9691 24.1387 12.7269 21.0622 15.0177L20.8108 15.2097L19.2882 16.404L16.8368 18.3247C14.5809 20.1056 14.1968 23.3812 15.9777 25.6371C16.8263 26.7127 18.066 27.4076 19.4244 27.5752C19.6339 27.6032 19.847 27.6171 20.06 27.6136C21.2228 27.6136 22.3473 27.2225 23.2587 26.5031L27.8857 22.8784C29.0032 21.8761 30.7213 21.9669 31.7235 23.0844C32.7258 24.2019 32.6315 25.92 31.514 26.9222C31.4267 27.0025 31.3324 27.0758 31.2347 27.1422L26.234 31.0708L25.6613 31.5213C21.2857 34.954 14.9545 34.1892 11.5183 29.8136C8.08562 25.4381 8.85038 19.1069 13.226 15.6707M38.4353 17.3225C37.7299 16.4215 36.9023 15.6253 35.9804 14.9478C33.3334 8.53986 25.9895 5.48778 19.5781 8.13478C18.52 8.57129 17.5282 9.15097 16.6273 9.85637L11.6964 13.7116C6.2383 17.9999 5.29195 25.899 9.58023 31.3537C10.2821 32.2476 11.1028 33.0403 12.0177 33.7143C13.9628 38.4147 18.5514 41.4737 23.6359 41.4667C26.44 41.4667 29.1604 40.5274 31.3674 38.7953L36.2982 34.9645C41.7528 30.6867 42.7096 22.7946 38.4318 17.3399V17.3294L38.4353 17.3225Z" fill="#FFCC00"/>
</svg>
