<svg width="48" height="48" viewBox="0 0 48 48" fill="none" xmlns="http://www.w3.org/2000/svg">
<path d="M38.5483 16.9482C37.7101 16.0302 36.7122 15.3118 35.5148 14.8328C34.3174 14.3139 33.0003 14.0745 31.4836 14.0745C29.9669 14.0745 28.6098 14.3139 27.4124 14.7929C26.694 15.0723 26.0553 15.4714 25.4566 15.9105L27.3725 19.7422C27.8115 19.2233 28.969 18.1456 31.5235 18.1456C33.3595 18.1456 34.8762 18.7843 35.5947 19.7422C36.5526 20.9795 37.0316 22.4164 37.0316 24.6515C37.0316 26.9665 36.5127 31.3171 31.4836 31.3969C26.4944 31.4368 26.0553 26.6472 25.9755 24.6515C25.8558 19.9817 24.379 17.8263 23.5807 16.9083C22.7425 15.9903 21.7447 15.2719 20.5473 14.7929C19.5494 14.3938 18.4718 14.1543 17.2744 14.0745V18.1856C18.5915 18.3053 19.9885 18.8242 20.7468 19.9418C21.3855 20.8997 21.9442 22.2966 21.9442 24.6116C21.9442 24.6116 21.9442 27.5253 22.5429 29.1219C23.0219 30.3991 23.5807 31.5566 24.4189 32.4746C25.2571 33.3926 26.2549 34.1111 27.4523 34.59C28.6497 35.069 30.0068 35.3085 31.4836 35.3085C33.0003 35.3085 34.3174 35.069 35.5148 34.59C36.7122 34.1111 37.7101 33.3926 38.5483 32.4746C39.3865 31.5566 40.0251 30.439 40.4641 29.1219C40.9032 27.8047 41.1426 26.3279 41.1426 24.6915C41.1426 23.055 40.9431 21.5782 40.4641 20.2611C40.0251 18.9838 39.3865 17.8662 38.5483 16.9482ZM16.4761 31.2373C14.6401 31.2373 13.1234 30.5987 12.4049 29.6407C11.447 28.4034 10.968 27.0064 10.968 24.8112V14.0745H6.85693C6.85693 14.0745 6.85693 24.5717 6.85693 24.6515C6.85693 26.288 7.0565 27.7648 7.53546 29.0819C7.97451 30.3991 8.61313 31.5167 9.45131 32.4347C10.2895 33.3527 11.2873 34.0711 12.4847 34.5501C13.6821 35.0291 15.0392 35.2685 16.516 35.2685C17.9928 35.2685 19.3898 35.0291 20.5872 34.5501C21.3455 34.2308 22.0241 33.8317 22.6228 33.3527C22.6228 33.3527 21.0661 30.9978 20.8267 29.3214C20.7468 29.4412 19.749 31.2373 16.4761 31.2373Z" fill="#05A04B"/>
</svg>
