<svg width="48" height="48" viewBox="0 0 48 48" fill="none" xmlns="http://www.w3.org/2000/svg">
<path d="M16.0558 12.9006L31.892 12.901L36.6121 19.2425L37.697 18.4363L37.7838 18.3728L32.6349 11.385H15.1553L10.2919 18.1436L10.2876 18.2235L11.5364 18.8874L16.0558 12.9006Z" fill="#094E8F"/>
<path d="M41.48 23.4581L40.5227 24.381L42.3029 26.9946H32.0744L31.2332 25.311L30.1577 26.2048L31.3985 28.3632L45.0001 28.3626V28.3275L41.48 23.4581Z" fill="#094E8F"/>
<path d="M30.6559 32.1513L30.638 31.9054H29.2894L29.2368 31.958V36.5708H30.638V33.1858C30.638 33.0145 31.2009 32.9711 31.2328 33.2216L31.2335 36.6059H32.7048L32.6779 32.476C32.289 31.6046 31.3532 31.7674 30.6559 32.1513H30.6559Z" fill="#094E8F"/>
<path d="M19.8135 35.184C19.7587 35.4746 19.1837 35.3794 19.1837 35.2554V31.8353H17.7124V35.8518C17.7124 35.87 17.8536 36.1376 17.8789 36.1761C18.005 36.3672 18.2907 36.5754 18.5181 36.6059C18.6121 36.6186 18.8439 36.6182 18.9384 36.6059C19.0595 36.5902 19.3824 36.4741 19.5087 36.4228C19.6881 36.3498 19.8566 36.1179 19.8142 36.5007H21.1804V31.8704H19.7792L19.8135 35.1841V35.184Z" fill="#094E8F"/>
<path d="M11.8801 32.1513L11.8623 31.9054H10.4961V36.5708H11.8623V33.1858C11.8623 33.1543 12.0894 33.0269 12.1564 33.0292C12.2387 33.0321 12.4761 33.1244 12.4929 33.2207L12.4928 36.6059H13.929L13.9125 32.5008C13.5504 31.592 12.5843 31.7767 11.8801 32.1514V32.1513Z" fill="#094E8F"/>
<path d="M19.0052 24.6963L17.7501 24.1206L16.1476 27.1013L5.97766 27.0645L7.72279 24.4077L6.87077 23.312L3 28.6081H17.2394L19.0052 24.6963Z" fill="#094E8F"/>
<path d="M27.1875 24.0481H28.7113V19.8213C28.7113 19.7891 28.4692 19.3932 28.425 19.3362C28.0825 18.895 27.6109 18.7202 27.0564 18.7955C26.8744 18.8203 26.4426 19.0378 26.3495 19.0317C26.2507 19.0252 25.988 18.8432 25.8464 18.7965C25.2647 18.6048 24.7854 18.7287 24.3101 19.0995C24.2679 19.1069 23.8871 18.7865 23.8597 18.7865H22.4761V24.013C22.5017 24.0223 22.518 23.9779 22.5286 23.9779H23.9649C23.9756 23.9779 23.9918 24.0223 24.0174 24.013V20.6456C24.0174 20.6334 24.214 20.5245 24.2256 20.5208C24.3447 20.4819 24.7531 20.5362 24.7531 20.6631V24.0131H26.3995V20.7684C26.3995 20.6987 26.6942 20.58 26.7673 20.58C26.8568 20.58 27.0629 20.6707 27.1351 20.7333V23.9956L27.1877 24.0482L27.1875 24.0481Z" fill="#094E8F"/>
<path d="M15.2949 18.7515C14.6448 18.6308 13.8214 18.9507 13.28 19.3116C12.3092 19.9586 11.913 20.8964 12.1535 22.0552C12.5987 24.2001 15.1212 24.3299 16.8824 24.0416L16.9415 23.9955V16.5063H15.3652L15.2949 18.7515H15.2949ZM15.2951 22.5047C13.8527 22.3869 13.7577 20.3256 15.2951 20.2948V22.5047Z" fill="#094E8F"/>
<path d="M36.7902 22.781C37.5319 24.2161 39.6307 24.3302 40.8669 23.4959L41.0067 22.2593C40.4458 22.4788 39.8884 22.6296 39.2775 22.5703C38.8593 22.5297 38.3987 22.2701 38.3096 21.8382H40.9368V20.9437C40.9368 20.2089 40.3683 19.2363 39.7 18.92C37.2108 17.7418 35.7563 20.7806 36.7902 22.781ZM39.5007 20.5403H38.3447C38.491 19.9351 39.3098 20.0023 39.5007 20.5403Z" fill="#094E8F"/>
<path d="M10.1435 23.8879C10.2027 23.8505 10.2432 23.7801 10.3091 23.738C10.7382 23.4636 11.1048 23.8968 11.5115 24.013L12.0351 22.9078C11.8802 22.625 11.7555 22.3928 11.7266 22.0616C11.6684 21.3941 11.8107 21.0289 11.5919 20.3023C11.0218 18.4091 9.26566 18.4319 7.76381 19.2424V20.3298C7.8807 20.2703 8.01445 20.2296 8.1419 20.1997C8.56076 20.1015 9.39067 19.9744 9.7888 20.1084C10.1398 20.2266 10.078 20.5649 9.89351 20.8134C8.51567 20.7899 6.78004 21.3543 7.33371 23.0931C7.68388 24.1929 9.26048 24.445 10.1435 23.8878L10.1435 23.8879ZM9.18155 22.3282C9.27621 21.9552 9.80553 21.8086 10.1459 21.8383C10.1573 22.0456 9.99142 22.7413 9.80254 22.8173C9.44019 22.963 9.07877 22.7333 9.18155 22.3283V22.3282Z" fill="#094E8F"/>
<path d="M21.9199 22.097C21.887 21.7714 21.9657 21.4657 21.9501 21.1545C21.9275 20.706 21.7192 20.0392 21.4884 19.6527C20.7007 18.3341 19.1146 18.617 17.9574 19.2424V20.3298C18.2484 20.1985 18.6083 20.125 18.9252 20.0888C19.1103 20.0676 19.4793 20.0365 19.6577 20.048C20.0163 20.0713 20.338 20.1991 20.181 20.6098C20.0565 20.9353 19.899 20.7907 19.6217 20.8213C18.3226 20.9647 17.0634 21.5011 17.5198 23.0656C17.8208 24.0975 19.1171 24.37 20.0337 24.0401C20.2708 23.9547 20.3805 23.774 20.5415 23.7066C20.9486 23.5362 21.3039 23.8572 21.6536 24.0093L22.2295 22.9075C22.0768 22.6473 21.951 22.4048 21.9199 22.0969V22.097ZM19.7968 22.8586C19.5607 22.8666 19.369 22.7309 19.3561 22.4879C19.3292 21.9826 19.9323 21.8163 20.3393 21.8384C20.2751 22.1724 20.2466 22.8434 19.7968 22.8586Z" fill="#094E8F"/>
<path d="M25.098 13.5656L22.6565 13.5653C22.1696 14.727 21.5527 15.8334 21.0453 16.9851C21.0242 17.0327 20.9571 17.1764 20.9571 17.1764C20.9571 17.1764 24.9403 17.1729 26.9251 17.1729L25.098 13.5656ZM23.247 15.9101L23.7077 14.9334H24.1877L24.6832 15.9102L23.247 15.9101Z" fill="#094E8F"/>
<path d="M38.5546 34.5718L40.8665 34.5714V33.6769C40.8665 32.9043 40.2049 32.0888 39.4729 31.8803C37.5514 31.3329 36.6415 33.3074 37.066 34.9219C37.4964 36.5581 39.5081 36.8511 40.797 36.0277L40.9362 34.9221C40.1838 35.2276 38.9622 35.5175 38.5545 34.5717L38.5546 34.5718ZM39.6055 33.3437H38.5896C38.7496 32.8203 39.4715 32.8217 39.6055 33.3437Z" fill="#094E8F"/>
<path d="M28.4061 33.0706C27.8885 31.4981 26.3304 31.4957 25.1033 32.2739V33.1684C25.3374 33.0608 25.6383 32.9943 25.896 32.9624C26.0718 32.9406 26.4229 32.9109 26.5935 32.9217C26.7742 32.9332 27.0844 33.0034 27.099 33.2229C27.1034 33.2881 27.0096 33.5421 26.9602 33.572C26.9195 33.5967 26.4046 33.6111 26.2815 33.6291C25.1666 33.7913 24.3068 34.4489 24.7964 35.668C25.1163 36.4645 26.3462 36.6795 27.0492 36.3272C27.1773 36.2631 27.2347 36.1363 27.3661 36.0833C27.7448 35.9307 28.001 36.2356 28.3402 36.3281L28.8149 35.3953C28.6878 35.1706 28.5646 34.9173 28.5406 34.655C28.4851 34.0485 28.6267 33.7411 28.406 33.0706H28.4061ZM26.8571 35.3277C26.6201 35.4075 26.3276 35.2787 26.3255 35.0103C26.3226 34.6264 26.8446 34.4245 27.1702 34.4661C27.1975 34.6752 27.0707 35.2558 26.8571 35.3277Z" fill="#094E8F"/>
<path d="M33.9653 32.3085C32.7749 33.3295 32.9333 35.2881 34.2142 36.1643C35.0307 36.7229 35.9232 36.6183 36.8381 36.3955V35.3432C36.2042 35.5217 35.4976 35.5258 35.0337 34.9928C34.5492 34.4362 34.6501 33.5285 35.1914 33.0452C35.6478 32.6378 36.2801 32.7238 36.8381 32.8176V31.6951C35.8212 31.5151 34.7725 31.6163 33.9653 32.3085V32.3085Z" fill="#094E8F"/>
<path d="M30.8772 24.6556C30.9036 24.6079 31.0586 24.2972 31.0586 24.2761V18.7513H29.4823L29.455 24.0032C29.3522 24.2138 29.2099 24.4398 28.9946 24.5429L28.9957 24.5858L29.8787 25.6574C30.2689 25.4083 30.6505 25.0652 30.8772 24.6557V24.6556Z" fill="#094E8F"/>
<path d="M16.5858 31.9285C15.981 31.7952 15.3254 31.779 14.8079 32.1716C13.878 32.8771 14.4495 33.8467 15.1734 34.4303C15.4711 34.6703 15.8437 34.7278 15.7862 35.221C15.743 35.592 15.2315 35.484 14.9788 35.432C14.752 35.3854 14.5441 35.2713 14.3145 35.2379V36.2902C15.0995 36.5426 16.6311 36.7956 17.0535 35.8584C17.3441 35.2135 17.0294 34.4027 16.503 33.9758C16.2743 33.7904 15.4681 33.4236 15.8538 33.0084C16.1938 32.6422 16.7993 32.8678 17.1866 33.0279L17.2841 32.2074C17.2651 32.1021 16.7054 31.9549 16.5858 31.9285L16.5858 31.9285Z" fill="#094E8F"/>
<path d="M23.352 31.8704H21.9858V36.4656H23.317V33.0806C23.639 32.7884 24.1072 32.8285 24.4029 33.1332V31.8353C24.0509 31.8425 23.6327 31.9465 23.3694 32.1859L23.352 31.8704Z" fill="#094E8F"/>
<path d="M9.7607 31.9757H8.39453V36.5007H9.7607V31.9757Z" fill="#094E8F"/>
<path d="M31.7916 22.781C32.5334 24.2161 34.6321 24.3302 35.8684 23.4959L36.0082 22.2593C35.4473 22.4788 34.8899 22.6296 34.279 22.5703C33.8607 22.5297 33.4001 22.2701 33.3111 21.8382H35.9383V20.9437C35.9383 20.2089 35.3698 19.2363 34.7015 18.92C32.2123 17.7418 30.7577 20.7806 31.7916 22.781ZM34.5021 20.5403H33.3461C33.4924 19.9351 34.3112 20.0023 34.5021 20.5403Z" fill="#094E8F"/>
<path d="M30.2223 17.9402C30.7059 17.9393 31.0972 17.546 31.0963 17.0617C31.0954 16.5773 30.7026 16.1855 30.2189 16.1864C29.7353 16.1874 29.344 16.5807 29.3449 17.065C29.3459 17.5493 29.7387 17.9412 30.2223 17.9402Z" fill="#094E8F"/>
<path d="M8.95133 31.1749C9.36053 31.174 9.69151 30.841 9.69058 30.4312C9.68965 30.0215 9.35717 29.69 8.94796 29.6909C8.53876 29.6919 8.20778 30.0248 8.20871 30.4346C8.20964 30.8444 8.54212 31.1758 8.95133 31.1749Z" fill="#094E8F"/>
</svg>
