<svg width="48" height="48" viewBox="0 0 48 48" fill="none" xmlns="http://www.w3.org/2000/svg">
<path d="M16.5933 24.7454C15.9221 19.3101 17.9004 7.39111 23.0591 9.98364C24.3285 10.6217 25.8926 11.8301 29.0806 14.9983C31.5625 17.4647 35.6894 22.4351 35.1899 23.9875C34.0652 27.4823 24.096 28.8393 20.3725 29.259C18.8965 29.4476 17.2266 29.8746 16.5933 24.7454ZM30.4927 24.6555C30.2882 20.6854 28.1268 9.96591 22.3833 14.886C18.7575 17.9922 16.4765 22.8162 17.1831 23.9661C18.0831 25.4299 21.4516 25.6542 23.4106 25.928C28.8851 26.3543 30.6231 27.1886 30.4927 24.6555Z" fill="#B8B7B7"/>
<path d="M25.7864 6.66106C42.4625 5.30215 41.5002 13.0135 41.51 13.5409C41.0139 20.287 32.5093 41.4774 27.4026 41.4999C20.4864 41.5297 11.2499 23.6427 7.02859 17.3124C3.82022 12.5013 15.3393 7.51235 25.7864 6.66106ZM28.0667 10.8866C26.5972 10.3179 15.2761 5.67264 14.1634 11.2538C13.8129 13.0128 13.8906 14.3581 13.971 15.9189C14.1309 17.2826 14.4555 22.6213 17.0696 30.4394C18.6751 35.2413 20.4558 37.735 25.1038 35.5292C32.1171 32.2005 41.962 17.8058 36.8762 15.0077C35.7444 14.385 30.5949 11.8651 28.0667 10.8866ZM28.9641 17.4433C29.5225 18.8442 29.9126 20.4368 30.1614 21.8681C29.9126 20.4371 29.5224 18.845 28.9641 17.4443V17.4433ZM29.0813 14.998C29.4885 15.4026 29.9404 15.8744 30.4085 16.3876L30.8802 16.914C30.2452 16.1969 29.6233 15.5375 29.0803 14.998C29.0259 14.9439 28.9717 14.8907 28.9182 14.8378C28.9719 14.8909 29.0268 14.9437 29.0813 14.998ZM28.1243 15.7333C28.2606 15.9561 28.3917 16.1907 28.5149 16.4364L28.5276 16.4638C28.4004 16.2083 28.2654 15.9643 28.1243 15.7333ZM17.2786 15.6464L17.1223 16.3183C17.1714 16.0921 17.223 15.8679 17.2776 15.6464L17.4505 14.9902C17.3902 15.2058 17.3332 15.4249 17.2786 15.6464ZM27.8616 15.329C27.9369 15.4364 28.0095 15.5483 28.0813 15.663C28.0096 15.5482 27.9369 15.4364 27.8616 15.329ZM27.0384 14.3905C27.1144 14.4574 27.1898 14.5272 27.263 14.6015C27.1898 14.5272 27.1145 14.4573 27.0384 14.3905ZM26.594 14.0536C26.7338 14.1426 26.8689 14.2447 27.0003 14.3573C26.924 14.2922 26.8468 14.2303 26.7678 14.1728L26.594 14.0536ZM27.8001 13.748C27.895 13.8389 27.9917 13.932 28.0901 14.0273C27.9917 13.932 27.895 13.8389 27.8001 13.748ZM26.9065 12.9062C25.8632 11.9443 25.0546 11.2759 24.3762 10.7919V10.7909C24.5742 10.9322 24.7834 11.0892 25.0061 11.2646C25.4516 11.6153 25.9519 12.0398 26.5276 12.5595C26.6505 12.6705 26.7765 12.7863 26.9065 12.9062ZM22.8196 9.87297C22.8985 9.90636 22.9784 9.94289 23.0589 9.98332C23.1383 10.0233 23.2189 10.0655 23.301 10.1103L23.0589 9.9843L22.8196 9.87297ZM26.9739 12.9677C27.0175 13.0081 27.0603 13.0503 27.1048 13.0917C27.0411 13.0324 26.9793 12.9731 26.9173 12.9159C26.936 12.9332 26.955 12.9502 26.9739 12.9677Z" fill="#154172"/>
</svg>
