<svg width="48" height="48" viewBox="0 0 48 48" fill="none" xmlns="http://www.w3.org/2000/svg">
<mask id="mask0_11312_64419" style="mask-type:luminance" maskUnits="userSpaceOnUse" x="27" y="26" width="11" height="11">
<path d="M27.5056 29.7069C26.4279 32.2195 27.7504 35.1944 30.4636 36.3572C33.1699 37.5165 36.24 36.4184 37.3178 33.9092C38.3922 31.3967 37.0662 28.4218 34.3599 27.2556C33.6289 26.9428 32.8673 26.7932 32.1295 26.7932C30.1372 26.7932 28.2944 27.871 27.5056 29.7035" fill="white"/>
</mask>
<g mask="url(#mask0_11312_64419)">
<path d="M28.2807 22.4613L22.5415 35.8518L36.5321 41.8482L42.2713 28.4576L28.2807 22.4613Z" fill="url(#paint0_linear_11312_64419)"/>
</g>
<mask id="mask1_11312_64419" style="mask-type:luminance" maskUnits="userSpaceOnUse" x="10" y="26" width="11" height="11">
<path d="M13.668 27.2351C10.9616 28.3979 9.63565 31.3728 10.7032 33.8887C11.7878 36.3979 14.8511 37.4926 17.5643 36.3333C20.2706 35.1739 21.5966 32.1922 20.5222 29.683C19.7368 27.8505 17.894 26.7727 15.8983 26.7727C15.1605 26.7727 14.3989 26.9223 13.668 27.2351Z" fill="white"/>
</mask>
<g mask="url(#mask1_11312_64419)">
<path d="M19.7358 22.4411L5.75146 28.4348L11.4893 41.8222L25.4736 35.8286L19.7358 22.4411Z" fill="url(#paint1_linear_11312_64419)"/>
</g>
<mask id="mask2_11312_64419" style="mask-type:luminance" maskUnits="userSpaceOnUse" x="24" y="11" width="21" height="23">
<path d="M42.0541 11.3439C42.0541 11.3439 35.6384 13.496 29.607 15.7468C28.5394 16.1446 27.4548 16.7667 26.6117 17.5453C25.4149 18.6537 24.7655 20.0273 24.3439 21.5776C23.8611 23.3014 24.2759 24.7429 24.9593 26.3919C25.9215 28.7378 26.7035 31.1722 27.5636 33.5555C27.9342 30.1658 28.8998 26.9733 35.9376 22.3222C42.9687 17.6677 44.5836 14.8798 44.9678 12.6868C45.1888 11.4527 44.2368 11.1841 43.363 11.1841C42.6865 11.1841 42.0507 11.3473 42.0507 11.3473" fill="white"/>
</mask>
<g mask="url(#mask2_11312_64419)">
<path d="M24.5077 7.53712L20.0391 32.8801L44.545 37.2012L49.0137 11.8582L24.5077 7.53712Z" fill="url(#paint2_linear_11312_64419)"/>
</g>
<mask id="mask3_11312_64419" style="mask-type:luminance" maskUnits="userSpaceOnUse" x="3" y="11" width="21" height="23">
<path d="M3.03306 12.6868C3.42405 14.8798 5.03901 17.6677 12.0768 22.3222C19.1079 26.9767 20.0666 30.1658 20.444 33.5555C21.311 31.1722 22.0828 28.7378 23.0416 26.3919C23.7352 24.7395 24.1397 23.3014 23.6638 21.5776C23.2422 20.0272 22.5894 18.6537 21.3892 17.5453C20.5528 16.7667 19.4683 16.1479 18.4007 15.7468C12.3624 13.496 5.95359 11.3439 5.95359 11.3439C5.95359 11.3439 5.31781 11.1807 4.64122 11.1807C3.77084 11.1807 2.81887 11.4493 3.02966 12.6834" fill="white"/>
</mask>
<g mask="url(#mask3_11312_64419)">
<path d="M23.4943 7.53622L-1.0083 11.8567L3.46036 37.1997L27.963 32.8792L23.4943 7.53622Z" fill="url(#paint3_linear_11312_64419)"/>
</g>
<defs>
<linearGradient id="paint0_linear_11312_64419" x1="38.8467" y1="29.6092" x2="28.9974" y2="25.3878" gradientUnits="userSpaceOnUse">
<stop stop-color="#67C08B"/>
<stop offset="1" stop-color="#005742"/>
</linearGradient>
<linearGradient id="paint1_linear_11312_64419" x1="10.8341" y1="34.1873" x2="20.6834" y2="29.9659" gradientUnits="userSpaceOnUse">
<stop stop-color="#67C08B"/>
<stop offset="1" stop-color="#005742"/>
</linearGradient>
<linearGradient id="paint2_linear_11312_64419" x1="44.4642" y1="17.6918" x2="25.9925" y2="14.4348" gradientUnits="userSpaceOnUse">
<stop stop-color="#67C08B"/>
<stop offset="1" stop-color="#006B52"/>
</linearGradient>
<linearGradient id="paint3_linear_11312_64419" x1="5.59673" y1="26.4764" x2="24.0744" y2="23.2183" gradientUnits="userSpaceOnUse">
<stop stop-color="#67C08B"/>
<stop offset="1" stop-color="#006B52"/>
</linearGradient>
</defs>
</svg>
