<svg width="48" height="48" viewBox="0 0 48 48" fill="none" xmlns="http://www.w3.org/2000/svg">
<path d="M33.3987 14.3986C33.3987 16.2789 31.8429 17.8061 29.9239 17.8061C28.0049 17.8061 26.4463 16.2789 26.4463 14.3986C26.4463 12.5183 28.0049 10.9938 29.9239 10.9938C31.8429 10.9938 33.3987 12.5183 33.3987 14.3986Z" fill="#282472"/>
<path d="M29.36 9.22839C34.3097 10.8815 37.8823 15.6165 37.8823 21.2054C37.8823 28.1655 32.3348 33.8091 25.4969 33.8091C20.9662 33.8091 17.0082 31.3349 14.8462 27.6427C16.9076 32.2108 21.4662 35.3856 26.7651 35.3856C33.9968 35.3856 39.8571 29.471 39.8571 22.177C39.8571 15.7807 35.3488 10.4463 29.3628 9.22839" fill="#9C9EA1"/>
<path d="M29.3658 19.4617C26.6871 19.4617 24.5139 17.2037 24.5139 14.4174C24.5139 13.1365 24.972 11.9706 25.7262 11.0811C24.2625 12.0664 23.2988 13.7551 23.2988 15.6682C23.2988 18.709 25.729 21.175 28.7233 21.175C31.7177 21.175 34.1479 18.709 34.1479 15.6682C34.1479 15.5587 34.1451 15.4465 34.1395 15.3343C33.7233 17.6799 31.7457 19.4589 29.3658 19.4589" fill="#9C9EA1"/>
<path d="M25.6478 39.8935C16.2345 39.8935 8.60049 32.1205 8.60049 22.5302C8.60049 14.4424 14.0306 7.6438 21.3797 5.71423C12.8546 7.1402 6.34912 14.7271 6.34912 23.8768C6.34912 34.0446 14.3798 42.2857 24.2903 42.2857C32.6254 42.2857 39.6337 36.4504 41.6504 28.5461C39.2454 35.1723 32.9913 39.8935 25.6506 39.8935" fill="#282472"/>
</svg>
