<svg width="48" height="48" viewBox="0 0 48 48" fill="none" xmlns="http://www.w3.org/2000/svg">
<path d="M42.0192 5.98096H5.98096V42.0192H42.0192V5.98096Z" fill="white"/>
<path d="M42.0191 42.0191V5.9809H5.9809V42.0191H42.0191ZM43 43H5V5H43V43Z" fill="#00008F"/>
<path d="M28.3379 23.7998L42.0191 5.98096H40.0169L26.269 23.7998H28.3379Z" fill="#FF1721"/>
<path d="M33.5435 31.7415C34.1441 33.4766 35.4789 38.0815 36.0128 38.4152H32.6092C32.6092 38.0148 32.5424 37.6143 32.4757 37.2139C32.3422 36.68 31.0742 32.7425 31.0742 32.7425H25.6685L24.8009 33.9438C24.8009 33.9438 25.802 37.1472 25.8687 37.2807C26.0022 37.5476 26.4693 38.4152 26.4693 38.4152H23.1992C23.1992 38.4152 23.1325 37.948 23.0657 37.7478C23.0657 37.6143 22.732 36.68 22.732 36.68C22.732 36.68 21.9979 37.4809 21.7977 37.8813C21.5975 38.2817 21.5308 38.4819 21.5308 38.4819H18.9948C18.9948 38.4819 18.928 38.0148 18.8613 37.8146C18.8613 37.6811 18.5276 36.68 18.5276 36.68C18.5276 36.68 17.7935 37.5476 17.5933 37.948C17.3931 38.3485 17.3263 38.5487 17.3263 38.5487H14.7903C14.7903 38.5487 15.5244 37.8813 15.7246 37.5476C16.125 37.0804 17.7267 35.0116 17.7267 35.0116L17.1261 32.8093H11.7871C11.7871 32.8093 8.71719 36.8135 8.58372 36.947C8.45024 37.0804 7.58265 38.3485 7.58265 38.4819H5.98096V37.4809L6.04769 37.4141C6.11443 37.3474 8.3835 34.5444 10.4524 31.8082C12.321 29.4056 14.0562 27.0031 14.2564 26.8029C14.6568 26.269 15.1907 25.0677 15.1907 25.0677H17.927C17.927 25.0677 17.9937 26.1355 18.0604 26.4025C18.1272 26.6027 19.7956 32.1419 19.8623 32.2086L20.7967 31.0073L19.195 26.0688C19.195 26.0688 18.7945 25.1345 18.7278 25.001H21.9312C21.9312 25.2679 21.9312 25.6016 22.0647 25.8686C22.1981 26.269 22.8655 28.805 22.8655 28.805C22.8655 28.805 25.0679 26.0688 25.2013 25.8686C25.3348 25.6016 25.4683 25.3347 25.4683 25.0677H28.1378C28.1378 25.0677 27.6706 25.4014 26.803 26.5359C26.5361 26.9364 23.6664 30.5402 23.6664 30.5402C23.6664 30.5402 23.9333 31.4078 24.0668 31.8082C24.0668 31.9417 24.1335 32.0084 24.1335 32.0084C24.1335 32.0084 24.2003 31.9417 24.3337 31.8082C25.0679 30.8739 28.4047 26.4692 28.6049 26.1355C28.7384 25.8018 29.0054 25.4681 29.1388 25.1345H31.7416C31.7416 25.1345 31.8083 25.9353 31.8751 26.1355L33.5435 31.7415ZM29.5393 27.6037C29.1388 28.4046 26.8698 31.2076 26.8698 31.2076H30.4736C30.4736 31.2076 29.8062 29.072 29.6727 28.6048C29.606 28.2044 29.5393 27.9374 29.5393 27.6037C29.5393 27.537 29.5393 27.4703 29.5393 27.6037ZM15.6579 27.6037C15.2575 28.4046 12.9884 31.2076 12.9884 31.2076H16.6589C16.6589 31.2076 15.9916 29.072 15.8581 28.6048C15.7246 28.2044 15.7246 27.9374 15.6579 27.6037C15.7246 27.537 15.7246 27.4703 15.6579 27.6037ZM21.1303 35.9459L22.1314 34.6112C22.0647 34.5444 21.464 32.8093 21.464 32.8093L20.5297 34.0773L21.1303 35.9459Z" fill="#00008F"/>
</svg>
