<svg width="48" height="48" viewBox="0 0 48 48" fill="none" xmlns="http://www.w3.org/2000/svg">
<path d="M42.4254 30.8538C42.3138 31.0283 42.2579 31.2342 42.1218 31.3982C41.9578 31.5901 41.7764 31.7541 41.567 31.8972C41.4728 31.9635 41.4413 31.9216 41.4344 31.8239C41.4169 31.4191 41.1447 31.1853 40.8341 30.9969C40.2584 30.6444 39.6128 30.5188 38.9532 30.4071C37.8749 30.2257 36.7931 30.2501 35.7113 30.285C35.0553 30.3059 34.3922 30.3722 33.7362 30.4699C33.3244 30.5327 32.9091 30.5781 32.5009 30.6479C32.0681 30.7212 31.6389 30.8084 31.2097 30.9026C30.7595 31.0038 30.3094 31.112 29.8592 31.2167C29.43 31.3179 29.0042 31.454 28.582 31.5866C28.1737 31.7157 27.7689 31.8553 27.3641 31.9984C26.7325 32.2252 26.1113 32.4765 25.4971 32.7522C24.9667 32.9895 24.4502 33.2442 23.9407 33.5199C22.9741 34.0468 22.0459 34.6366 21.1909 35.331C20.807 35.6416 20.4406 35.9731 20.0288 36.3256C20.137 36.015 20.2766 35.7672 20.4197 35.5229C20.8873 34.7378 21.477 34.0538 22.1471 33.4396C23.0195 32.637 23.9931 31.9635 25.0156 31.3737C25.8531 30.8922 26.7255 30.4699 27.6398 30.1035C27.5421 30.0198 27.4444 30.0477 27.3606 30.0651C26.7743 30.1873 26.1985 30.3338 25.6297 30.5258C24.8132 30.8049 24.0315 31.1609 23.2672 31.5587C22.2308 32.1031 21.2502 32.7347 20.322 33.4501C19.5019 34.0817 18.7377 34.7692 18.0223 35.516C17.778 35.7672 17.5512 36.0359 17.3104 36.3011C17.2336 36.1546 17.3383 36.0359 17.3767 35.9312C17.6908 35.0274 18.106 34.169 18.6714 33.3943C18.9715 32.979 19.2995 32.5881 19.652 32.2113C20.486 31.3144 21.4561 30.5921 22.4821 29.943C23.1451 29.5242 23.843 29.1718 24.5549 28.8437C25.3924 28.4599 26.2509 28.1319 27.1268 27.8422C27.6886 27.6573 28.254 27.4898 28.8263 27.3432C29.3776 27.2036 29.9325 27.078 30.4873 26.9558C30.9375 26.8581 31.4016 26.8128 31.8448 26.6837C31.8657 26.6767 31.8867 26.6662 31.9425 26.6383C31.7959 26.5964 31.6843 26.558 31.5691 26.5336C30.5955 26.2998 29.6742 25.9229 28.7774 25.4937C28.0132 25.1273 27.2664 24.7294 26.544 24.2863C25.6367 23.7314 24.7434 23.1626 23.8744 22.5449C23.1381 22.0215 22.3983 21.505 21.662 20.9816C21.0967 20.5803 20.5383 20.165 19.9451 19.8056C19.5054 19.5403 19.0308 19.3414 18.5423 19.1739C18.0956 19.0204 17.6524 18.8564 17.1987 18.7168C16.6683 18.5528 16.1414 18.3818 15.604 18.2352C15.0456 18.0817 14.4977 17.8967 13.9464 17.7187C13.3845 17.5373 12.8227 17.3523 12.2644 17.1604C11.4269 16.8708 10.6033 16.5497 9.79719 16.1868C9.16556 15.9006 8.55487 15.5831 7.9721 15.2097C7.13109 14.6723 6.37733 14.0441 5.87831 13.1543C5.73872 12.9065 5.62007 12.6518 5.57471 12.3412C5.78758 12.4249 5.93763 12.5575 6.10513 12.6657C6.72978 13.067 7.38235 13.4055 8.05236 13.7196C8.63862 13.9918 9.23535 14.243 9.83557 14.4838C10.3067 14.6723 10.7848 14.8433 11.2628 15.0143C11.8561 15.2271 12.4528 15.433 13.0495 15.6319C13.5241 15.7925 14.0057 15.939 14.4838 16.0926C14.9095 16.2321 15.3318 16.3752 15.7575 16.5113C16.096 16.6195 16.438 16.7102 16.773 16.8184C17.1603 16.944 17.5442 17.0766 17.9281 17.2093C18.3852 17.3663 18.8459 17.5129 19.296 17.6804C20.3464 18.0747 21.3619 18.5318 22.2622 19.2228C22.838 19.666 23.4627 20.0533 24.0629 20.4651C25.1028 21.1805 26.1427 21.8993 27.2001 22.5903C28.2644 23.2812 29.3323 23.9687 30.4699 24.5375C31.0771 24.8411 31.6982 25.1098 32.3473 25.3192C32.8882 25.4937 33.4326 25.6472 33.9909 25.7519C34.1759 25.7868 34.3574 25.8217 34.5528 25.8496C34.2178 25.3925 33.9526 24.9214 33.9735 24.2932C34.305 24.6003 34.654 24.8097 35.0169 24.9982C35.645 25.3227 36.2941 25.6054 36.9467 25.8775C37.6376 26.1637 38.3286 26.4568 39.023 26.7325C39.5011 26.921 39.9652 27.1303 40.4224 27.3641C40.6701 27.4933 40.876 27.6608 41.0191 27.905C41.3297 28.425 41.6856 28.917 41.9892 29.444C42.1358 29.7022 42.2754 29.9604 42.3521 30.2501C42.3591 30.2815 42.3417 30.3443 42.4115 30.3408V30.8433L42.4254 30.8538Z" fill="#A88730"/>
<path d="M29.7477 26.4848C29.4406 26.5476 29.1335 26.5615 28.8229 26.5615C28.2367 26.5615 27.6504 26.5406 27.0711 26.4499C26.6558 26.3836 26.2441 26.3033 25.8358 26.1951C25.3542 26.0695 24.8866 25.9159 24.4225 25.7449C23.7978 25.5181 23.2011 25.2355 22.6218 24.9179C21.7913 24.4642 21.0096 23.9373 20.2733 23.3441C19.8894 23.037 19.509 22.7229 19.0693 22.4926C18.5424 22.2134 17.9945 21.9796 17.4362 21.7807C16.6859 21.512 15.9356 21.2468 15.1749 21.0095C14.5049 20.7966 13.8384 20.5768 13.1823 20.3325C12.2575 19.9905 11.3502 19.6101 10.5337 19.0413C9.98229 18.6575 9.52166 18.1968 9.25296 17.5687C9.22155 17.4919 9.239 17.4151 9.2041 17.3419C9.24947 17.3174 9.28436 17.3314 9.32275 17.3558C10.0905 17.8234 10.914 18.1899 11.7411 18.5318C12.2994 18.7587 12.8717 18.9471 13.444 19.139C14.0163 19.3275 14.5886 19.5054 15.1609 19.6869C15.8484 19.9033 16.5498 20.0743 17.2373 20.2906C18.1306 20.5733 19.0205 20.8664 19.851 21.3061C20.2872 21.5364 20.6641 21.861 21.055 22.1611C21.9274 22.8311 22.8312 23.4522 23.7734 24.0211C24.4329 24.4154 25.103 24.7853 25.7939 25.1238C26.5267 25.4832 27.2735 25.7903 28.0482 26.0485C28.5368 26.2126 29.0358 26.3277 29.5313 26.4638C29.6011 26.4813 29.6779 26.4813 29.7512 26.4882L29.7477 26.4848Z" fill="#A88832"/>
<path d="M32.5394 12.4178C32.501 12.7005 32.508 12.9553 32.5394 13.217C32.5918 13.6602 32.7418 14.0685 32.9407 14.4628C33.3176 15.22 33.8376 15.8866 34.3366 16.5636C34.8077 17.2022 35.2893 17.8373 35.6033 18.5771C35.7464 18.9121 35.8755 19.2541 35.8651 19.6344C35.8546 20.137 35.6417 20.5592 35.387 20.971C34.9508 21.6864 34.3889 22.3145 33.9213 23.0089C33.6805 23.3649 33.4537 23.7278 33.3595 24.1501C33.2932 24.4502 33.3281 24.7398 33.4816 25.012C33.5026 25.0469 33.52 25.0853 33.5375 25.1202C33.5375 25.1202 33.534 25.1306 33.5305 25.1341C33.0001 24.8236 32.7453 24.1431 32.8884 23.5917C33.0768 22.8728 33.5026 22.2901 33.8795 21.6759C34.1063 21.3095 34.3226 20.9361 34.4692 20.5278C34.6367 20.0532 34.546 19.6065 34.3261 19.1703C34.0051 18.5387 33.5584 17.9873 33.1641 17.4011C32.7523 16.7869 32.3719 16.1588 32.1521 15.4504C31.9706 14.8676 31.9113 14.2778 32.0369 13.6706C32.1137 13.3077 32.2114 12.9587 32.3754 12.6307C32.4103 12.5609 32.4452 12.4946 32.5324 12.4178H32.5394Z" fill="#A88832"/>
<path d="M25.483 26.7291C25.2422 26.743 24.998 26.75 24.7572 26.771C24.2128 26.8198 23.6719 26.7745 23.131 26.7396C22.7297 26.7151 22.3319 26.6349 21.9341 26.5546C21.5153 26.4709 21.1035 26.3662 20.6987 26.2301C20.2102 26.0626 19.7321 25.8602 19.2645 25.6333C18.4653 25.2425 17.7465 24.7121 16.9334 24.3491C16.4099 24.1188 15.89 23.885 15.3665 23.6547C14.6023 23.3197 13.8485 22.9603 13.1925 22.4298C12.8714 22.1681 12.5992 21.861 12.4178 21.4841C12.3899 21.4283 12.3584 21.369 12.3864 21.2817C12.6272 21.4178 12.854 21.5609 13.1052 21.6656C13.5345 21.8436 13.9672 22.0111 14.4104 22.1507C15.1083 22.3705 15.7992 22.6113 16.4937 22.8381C17.0834 23.0301 17.6592 23.2604 18.2071 23.557C18.7829 23.8676 19.3133 24.2479 19.8472 24.6213C20.4719 25.061 21.114 25.4728 21.8119 25.7869C22.2202 25.9683 22.6425 26.1184 23.0752 26.244C23.466 26.3592 23.8708 26.436 24.2686 26.5162C24.6699 26.5965 25.0782 26.6104 25.4795 26.7186L25.483 26.7291Z" fill="#A88832"/>
<path d="M32.4697 24.8235C32.023 24.4117 31.8276 23.9441 31.9008 23.3579C31.9602 22.8728 32.1521 22.4366 32.3091 21.9829C32.4243 21.6479 32.5429 21.3059 32.5569 20.9465C32.5813 20.4335 32.3754 19.9869 32.0998 19.5681C31.7613 19.0551 31.346 18.6015 31.011 18.0885C30.5713 17.415 30.3794 16.6752 30.484 15.8795C30.5573 15.3247 30.7248 14.7838 31.0982 14.2917C31.1087 14.5116 31.0424 14.6826 31.0319 14.8606C30.9831 15.6039 31.2238 16.2599 31.5833 16.8915C31.9706 17.572 32.4871 18.1583 32.9268 18.8039C33.1955 19.1982 33.4433 19.603 33.5549 20.0671C33.6736 20.5766 33.548 21.0582 33.3211 21.5188C33.0803 22.0074 32.8291 22.4889 32.5953 22.9775C32.4068 23.3718 32.2952 23.7871 32.3301 24.2338C32.3405 24.3734 32.3789 24.5025 32.4452 24.6211C32.4766 24.677 32.4836 24.7328 32.4697 24.82V24.8235Z" fill="#A88832"/>
<path d="M31.7159 24.6142C31.2657 24.4013 31.018 24.0768 30.9063 23.6371C30.7981 23.2078 30.8295 22.7751 30.8749 22.3389C30.9517 21.5956 30.7039 20.971 30.2014 20.4266C29.8803 20.0811 29.5698 19.7182 29.3848 19.2715C29.2208 18.8667 29.1475 18.4549 29.2208 18.0187C29.2836 17.6314 29.3813 17.2545 29.5384 16.8951C29.5663 16.8253 29.6465 16.7974 29.6431 16.7206C29.5977 16.9369 29.5907 17.1568 29.6221 17.3766C29.7233 18.1269 30.1595 18.7062 30.6027 19.282C30.9691 19.7601 31.3635 20.2242 31.5135 20.8279C31.5938 21.1524 31.6147 21.477 31.5693 21.8155C31.503 22.3285 31.346 22.824 31.2971 23.3405C31.2518 23.8046 31.3286 24.2443 31.7194 24.6142H31.7159Z" fill="#A88832"/>
</svg>
