<svg width="48" height="48" viewBox="0 0 48 48" fill="none" xmlns="http://www.w3.org/2000/svg">
<path d="M24.4072 35.2732C26.5428 35.2732 28.6158 34.8868 30.5686 34.1715C31.451 33.383 32.2865 32.511 33.0645 31.5555C30.4172 32.7408 27.5923 33.383 24.6526 33.383C18.3764 33.383 12.591 30.4486 7.98046 25.5299C7.8186 25.3576 7.61496 25.2584 7.40088 25.2323C11.4841 31.3675 17.5932 35.268 24.4072 35.268V35.2732Z" fill="#FFD530"/>
<path d="M12.6167 6.94656C12.6167 6.94656 33.4034 8.20494 24.6 30.1978C24.6 30.1978 57.0619 -0.760344 12.6167 6.94656Z" fill="#E30613"/>
<path d="M41.3611 12.0899V11.7975V11.8079V11.7923C41.3507 11.3641 41.2045 10.9673 40.9643 10.6644C40.9643 10.6644 40.9591 10.6592 40.9591 10.654C40.8964 10.5809 40.8337 10.513 40.7659 10.4504C40.745 10.4347 40.7241 10.419 40.7032 10.4034C40.6458 10.3616 40.5935 10.3146 40.5361 10.278C40.4891 10.2519 40.4421 10.2311 40.3951 10.2102C40.3534 10.1945 40.3168 10.1684 40.275 10.1527C40.1863 10.1214 40.0923 10.0953 39.9931 10.0796C39.9095 10.0692 39.8208 10.064 39.732 10.0692C39.7007 10.0692 39.6693 10.0692 39.6328 10.0796C39.6015 10.0796 39.5701 10.0796 39.5388 10.0849C38.9383 10.1945 38.4266 10.6644 38.2491 11.3432C35.795 20.8307 30.114 27.6656 24.9396 30.5322C30.3803 29.8064 35.1684 26.2297 38.3953 20.9716C36.9176 26.3811 34.1502 30.9969 30.584 34.1715C28.6259 34.8869 26.5582 35.2733 24.4226 35.2733C17.6086 35.2733 11.5047 31.3728 7.41626 25.2376C7.19696 25.2115 6.97244 25.2637 6.77924 25.4099C6.71658 25.4569 6.65915 25.5143 6.60693 25.577C10.5596 32.2814 16.9768 36.9441 24.3861 37.8892C22.6787 38.4897 20.8877 38.8134 19.0393 38.8134C16.8097 38.8134 14.6585 38.3435 12.6482 37.482C12.8779 37.7221 13.1129 37.9519 13.3479 38.1764C13.4001 38.2234 13.4523 38.2756 13.5097 38.3226C13.6194 38.427 13.729 38.5263 13.8439 38.6255C13.8961 38.6725 13.964 38.7194 14.0162 38.7717C14.1415 38.8813 14.2721 38.991 14.3974 39.0954C14.4183 39.1111 14.4287 39.1215 14.4444 39.1319C14.93 39.5236 15.426 39.8786 15.9325 40.2023C15.9795 40.2337 16.0265 40.2598 16.0683 40.2911C16.1988 40.3694 16.3241 40.4425 16.4546 40.5156C16.5225 40.5574 16.5956 40.5992 16.6635 40.641C16.7836 40.7036 16.9037 40.7715 17.0238 40.8289C17.1073 40.8707 17.1909 40.9125 17.2744 40.9595C17.3841 41.0169 17.4989 41.0691 17.619 41.1213C17.7078 41.1631 17.7966 41.2049 17.8906 41.2519C18.0002 41.2936 18.1151 41.3406 18.2247 41.3928C18.3239 41.4294 18.4231 41.4659 18.5171 41.5077C18.6268 41.5443 18.7312 41.5808 18.8409 41.6226C18.9453 41.6591 19.0497 41.6905 19.1541 41.7218C19.2586 41.7531 19.363 41.7897 19.4727 41.821C19.5823 41.8471 19.6972 41.8732 19.8068 41.9098C19.906 41.9359 20.0105 41.962 20.1149 41.9829C20.2298 42.009 20.3499 42.0351 20.47 42.056C20.5692 42.0769 20.6632 42.0925 20.7624 42.1134C20.8877 42.1343 21.0182 42.1552 21.1435 42.1708C21.2323 42.1813 21.3263 42.197 21.4151 42.2074C21.5613 42.2231 21.7022 42.2387 21.8484 42.2492C21.9215 42.2492 21.9999 42.2648 22.073 42.2648C22.2975 42.2805 22.5168 42.2857 22.7413 42.2857C26.5373 42.2857 30.067 40.4425 33.012 37.2888C33.012 37.2888 33.0224 37.2731 33.0328 37.2679C33.2417 37.0434 33.4453 36.8084 33.6438 36.5734C33.6855 36.5316 33.7221 36.4899 33.7586 36.4481C33.9518 36.2131 34.145 35.9729 34.3382 35.7275C34.38 35.6753 34.4218 35.6231 34.4635 35.5709C34.6463 35.3255 34.829 35.0749 35.0066 34.8242C35.0483 34.7668 35.0953 34.7041 35.1371 34.6415C35.3094 34.3908 35.4817 34.1298 35.6488 33.8687C35.6906 33.8008 35.7376 33.7329 35.7846 33.6651C35.9464 33.4092 36.1031 33.1377 36.2649 32.8714C36.3119 32.7983 36.3537 32.72 36.4007 32.6364C36.5573 32.3701 36.7035 32.0934 36.855 31.8219C36.902 31.7383 36.9437 31.6548 36.9855 31.5712C37.1317 31.2893 37.2675 31.0125 37.4137 30.7254C37.4554 30.6366 37.5024 30.5478 37.5442 30.4538C37.68 30.1667 37.8105 29.8743 37.941 29.5766C37.9671 29.5192 37.9933 29.4618 38.0194 29.4043C39.8834 25.107 41.0687 19.9796 41.335 14.4343C41.335 14.4239 41.3402 14.4187 41.3454 14.4082C41.3559 14.2307 41.3559 14.048 41.3611 13.8652C41.3611 13.7399 41.3715 13.6198 41.3715 13.4945C41.3872 13.0298 41.3924 12.5598 41.3924 12.0951" fill="#E30613"/>
</svg>
