<svg width="48" height="48" viewBox="0 0 48 48" fill="none" xmlns="http://www.w3.org/2000/svg">
<path d="M12.9798 34.0054C12.2506 33.0906 11.9493 32.7112 11.4622 31.9928L11.4219 31.9336C10.6227 30.747 9.96891 29.7756 9.05138 29.0787C10.1949 28.4976 10.8192 27.5101 10.8192 26.2481C10.8192 25.1934 10.3994 24.3108 9.60566 23.6947C8.83343 23.0973 7.73832 22.7825 6.43602 22.7825H3V34.6942H5.23059C5.31131 34.6942 5.37858 34.627 5.37858 34.5462V29.7783H5.8333C6.60823 29.7783 7.2809 29.9559 8.89801 32.243L10.5447 34.5731C10.5905 34.6377 10.6954 34.6942 10.7761 34.6942H13.5287L12.9798 34.0054ZM8.0316 27.1953C7.68181 27.5504 7.0791 27.7307 6.23422 27.7307H5.37858V24.7656H6.23422C8.14192 24.7656 8.37601 25.5755 8.38678 26.1862C8.39485 26.606 8.27646 26.945 8.0316 27.1953ZM20.8662 31.4788C20.8662 32.4233 20.4788 33.2843 19.7765 33.9005C19.085 34.5086 18.1298 34.8422 17.0831 34.8422C15.6813 34.8422 14.5189 34.4924 13.4291 33.7444L13.3 33.6556V30.9972C13.3 30.9353 13.3484 30.8869 13.4103 30.8869C13.4453 30.8869 13.4776 30.903 13.4964 30.9299C13.9404 31.5111 15.1189 32.7919 16.8813 32.7919C18.1432 32.7919 18.6141 32.0977 18.6141 31.6591C18.6141 30.7443 17.5674 30.1712 16.3566 29.5039C14.8902 28.6967 13.2246 27.7818 13.2246 25.9468C13.2246 24.9512 13.6202 24.1117 14.3709 23.5144C15.0974 22.9359 16.1118 22.6318 17.3011 22.6318C18.3101 22.6318 19.3245 22.9224 20.2312 23.4713L20.3738 23.5574V25.9441C20.3738 26.006 20.3254 26.0544 20.2635 26.0544C20.2393 26.0544 20.2178 26.0463 20.1989 26.0329C19.7738 25.632 18.6141 24.6821 17.1584 24.6821C16.171 24.6821 15.4795 25.1153 15.4795 25.7315C15.4795 26.5037 16.4212 26.9854 17.5082 27.545C19.0043 28.3119 20.8662 29.2698 20.8662 31.4762V31.4788ZM27.1921 22.8848C27.1678 22.8283 27.0979 22.7825 27.036 22.7825H25.5696C25.5077 22.7825 25.4404 22.8283 25.4162 22.8848L20.433 34.6969H22.7982C22.86 34.6969 22.9273 34.6512 22.9515 34.5947L24.3345 31.3578H28.4944L29.8774 34.5947C29.9016 34.6512 29.9715 34.6969 30.0307 34.6969H32.4012L27.1894 22.8848H27.1921ZM25.2117 29.3101L26.4144 26.4957L27.6172 29.3101H25.209H25.2117Z" fill="#575756"/>
<path d="M32.4635 21.9323L30.8867 22.6104C30.8302 22.6346 30.8006 22.7046 30.8195 22.7611L30.8787 22.9279C30.9002 22.9871 30.9648 23.0247 31.0267 23.0113L32.4662 22.683C32.4473 22.4301 32.4473 22.1799 32.4662 21.9323H32.4635ZM32.7218 20.5924L30.5692 20.9744C30.5073 20.9852 30.4616 21.0444 30.4697 21.1063L30.4912 21.3027C30.4993 21.3646 30.5531 21.413 30.6177 21.413L32.5334 21.3484C32.5792 21.0901 32.6411 20.8372 32.7245 20.5924H32.7218ZM30.5692 19.9251L32.816 20.3287C32.9209 20.0596 33.0474 19.7986 33.1927 19.5484L30.6177 19.465C30.5558 19.465 30.4993 19.5134 30.4939 19.5753L30.4697 19.7932C30.4643 19.8551 30.5073 19.9143 30.5692 19.9251ZM32.5388 23.2588L31.4921 23.9961C31.441 24.0311 31.4249 24.1064 31.4572 24.1575L31.5379 24.2921C31.5702 24.3459 31.6428 24.3674 31.6993 24.3405L32.6895 23.8831C32.6276 23.6786 32.5765 23.4714 32.5388 23.2561V23.2588ZM43.0083 18.3026C43.0003 18.2488 42.9545 18.2138 42.898 18.2272L42.4756 18.3241L42.9814 17.9662C42.9464 17.6729 42.8899 17.385 42.8119 17.1079C42.7958 17.0514 42.7366 17.0245 42.6827 17.0514L41.8782 17.4254L42.6424 16.6021C42.5482 16.3653 42.4379 16.1366 42.3141 15.9159C42.2845 15.8621 42.22 15.8487 42.1688 15.8863L41.1114 16.6801L41.924 15.3267C41.7894 15.1491 41.6441 14.9796 41.4881 14.8181C41.445 14.7804 41.3805 14.7831 41.3428 14.8262L40.2181 16.1204L40.8612 14.2638C40.7078 14.1454 40.5463 14.0378 40.3795 13.9383C40.3257 13.9087 40.2611 13.9248 40.2315 13.9786L39.244 15.7626L39.5131 13.6315C39.5212 13.5696 39.4808 13.5051 39.4243 13.4835C39.2979 13.4378 39.1687 13.3974 39.0369 13.3598C38.9777 13.3436 38.9131 13.3786 38.8942 13.4378L38.2323 15.6253L38.0386 13.271C38.0332 13.2091 37.9767 13.158 37.9148 13.158H37.5543C37.4924 13.158 37.4359 13.2091 37.4305 13.271L37.2287 15.7007L36.5291 13.3678C36.5103 13.3086 36.4457 13.271 36.3865 13.2817L36.0529 13.3517C35.991 13.3651 35.9479 13.427 35.956 13.4889L36.2762 15.9805L35.0735 13.7741C35.0439 13.7203 34.9739 13.6961 34.9147 13.7203L34.6214 13.8522C34.5649 13.8764 34.5353 13.9463 34.5568 14.0055L35.4179 16.4487L33.7389 14.4818C33.6985 14.4333 33.6232 14.4253 33.5721 14.4629L33.3299 14.6405C33.2788 14.6782 33.2653 14.7509 33.2976 14.8047L34.6914 17.0783L32.5792 15.4531C32.5307 15.4155 32.4554 15.4208 32.4124 15.4693L32.224 15.6765C32.181 15.7222 32.1837 15.7975 32.224 15.8433L34.1183 17.8317L31.6455 16.6424C31.589 16.6155 31.5164 16.637 31.4868 16.6908L31.3576 16.9142C31.3253 16.968 31.3442 17.0406 31.3953 17.0756L33.7281 18.6685L30.9863 17.9958C30.9271 17.9797 30.8598 18.0174 30.841 18.0766L30.7657 18.3026C30.7468 18.3618 30.7791 18.429 30.8356 18.4533L33.2572 19.4434C34.1183 18.0389 35.6035 17.046 37.3632 16.8738C37.487 16.8604 37.6135 16.855 37.7399 16.855C39.7203 16.855 41.3266 18.4613 41.3266 20.4417C41.3266 22.422 39.879 23.8642 38.0359 24.0149C39.9248 23.8589 41.5069 22.753 42.3545 21.2058C42.8254 20.3448 43.0702 19.3466 43.011 18.2999L43.0083 18.3026ZM32.3747 25.2257C32.3316 25.2715 32.3316 25.3468 32.3747 25.3926L32.4689 25.4921C32.5119 25.5379 32.5873 25.5432 32.6384 25.5056L33.2169 25.0724C33.1254 24.919 33.0393 24.7576 32.964 24.5961L32.3774 25.2284H32.3747V25.2257ZM34.8044 26.9989C34.7829 27.0581 34.8152 27.1254 34.8717 27.1496L34.9604 27.1873C35.017 27.2115 35.0896 27.1873 35.1192 27.1308L35.1865 27.007C35.0788 26.9451 34.9712 26.8778 34.869 26.8079L34.8044 26.9962V26.9989ZM33.494 26.2401C33.4617 26.2939 33.4779 26.3666 33.529 26.4016L33.6232 26.4688C33.6743 26.5038 33.7496 26.4957 33.79 26.4473L34.0537 26.146C33.9461 26.041 33.8465 25.9307 33.7469 25.8177L33.4913 26.2428L33.494 26.2401Z" fill="#4C2178"/>
<path d="M41.921 15.3267C41.8268 15.2029 41.7272 15.0818 41.625 14.9661L41.929 14.6163C41.9694 14.5679 42.0447 14.5625 42.0932 14.5975L42.1847 14.6674C42.2358 14.7051 42.2492 14.7805 42.217 14.8343L41.921 15.3267ZM42.9811 17.9662L44.1247 17.1617C44.1758 17.1267 44.1919 17.0514 44.1623 16.9976L44.087 16.8604C44.0574 16.8066 43.9847 16.7823 43.9282 16.8092L42.8627 17.3043C42.9165 17.5196 42.9542 17.7402 42.9811 17.9662ZM43.2932 15.8971C43.3363 15.8514 43.3363 15.776 43.2932 15.7276L43.2044 15.6253C43.1641 15.5769 43.0887 15.5715 43.0403 15.6092L42.4026 16.0908C42.4887 16.2576 42.5667 16.4272 42.6367 16.6021L43.2932 15.8971ZM42.973 19.3008L44.6709 18.5716C44.7274 18.5474 44.7597 18.4775 44.7408 18.4183L44.6897 18.2488C44.6709 18.1896 44.6063 18.1519 44.5471 18.1654L43.0161 18.5151C43.0215 18.7815 43.0053 19.0452 42.973 19.3008ZM42.747 20.2964L44.8996 19.9143C44.9615 19.9035 45.0072 19.8443 44.9991 19.7825L44.9776 19.586C44.9722 19.5242 44.9157 19.4757 44.8538 19.4757L42.9381 19.5403C42.8923 19.7986 42.8304 20.0515 42.7497 20.2964H42.747ZM40.9416 14.0217C40.9631 13.9625 40.9335 13.8925 40.877 13.8656L40.7909 13.8253C40.7344 13.7984 40.6644 13.8226 40.6321 13.8764L40.5433 14.0405C40.651 14.1105 40.7559 14.1858 40.8582 14.2612L40.9416 14.019V14.0217ZM44.8996 20.9637L42.6528 20.5601C42.5479 20.8318 42.4214 21.0901 42.2762 21.3404L44.8511 21.4238C44.913 21.4238 44.9695 21.3754 44.9776 21.3135L44.9991 21.0955C45.0045 21.0336 44.9615 20.9744 44.8996 20.9637ZM44.6386 22.4301L42.217 21.4399C41.3586 22.8391 39.876 23.832 38.1244 24.0096C37.9952 24.023 37.8661 24.0311 37.7343 24.0311C35.7539 24.0311 34.1476 22.4247 34.1476 20.4444C34.1476 18.5905 35.5548 17.0649 37.3576 16.8792C34.4247 17.1644 32.2506 19.7421 32.4659 22.6857L32.9959 22.5673L32.5816 22.8579H32.5762C32.5251 22.8929 32.4928 22.9736 32.5008 23.0355C32.5412 23.3261 32.6031 23.6086 32.6865 23.8831L33.5933 23.4633L32.9045 24.206C32.8614 24.2517 32.8479 24.3351 32.8722 24.3916C32.9717 24.6257 33.0847 24.8517 33.2139 25.067L34.3574 24.206L33.5987 25.4679C33.5691 25.5217 33.5744 25.6024 33.6148 25.6509C33.752 25.8231 33.8973 25.9872 34.0534 26.1433L35.2507 24.7656L34.64 26.5307C34.6265 26.5872 34.6534 26.6572 34.6991 26.6895C34.8552 26.8025 35.0193 26.9074 35.1862 27.0043L36.2248 25.1235L35.9584 27.2545C35.9503 27.3164 35.9907 27.381 36.0472 27.4025C36.1736 27.4483 36.3055 27.4886 36.4346 27.5263C36.4938 27.5424 36.5584 27.5075 36.5773 27.4483L37.2365 25.2634V25.258L37.4302 27.6124C37.4356 27.6743 37.4921 27.7254 37.554 27.7254H37.9145C37.9764 27.7254 38.0329 27.6743 38.0383 27.6124L38.2401 25.1827L38.9397 27.5182C38.9585 27.5774 39.0231 27.6151 39.0823 27.6043L39.4159 27.5344C39.4778 27.5209 39.5209 27.459 39.5128 27.3971L39.1926 24.9029L40.3954 27.1092C40.4249 27.163 40.4949 27.1873 40.5541 27.163L40.8474 27.0339C40.9039 27.0097 40.9335 26.9397 40.9147 26.8805L40.0536 24.4374L41.7353 26.4043C41.7757 26.4527 41.851 26.4608 41.9021 26.4231L42.1443 26.2455C42.1954 26.2078 42.2089 26.1352 42.1766 26.0814L40.7828 23.8077L42.895 25.4329C42.9434 25.4706 43.0188 25.4652 43.0618 25.4168L43.2502 25.2096C43.2905 25.1639 43.2905 25.0885 43.2502 25.0428L41.3559 23.0544L43.8287 24.2436C43.8852 24.2705 43.9578 24.249 43.9874 24.1952L44.1166 23.9692C44.1489 23.9154 44.13 23.8427 44.0789 23.8077L41.7461 22.2149L44.4906 22.8875C44.5498 22.901 44.6171 22.866 44.6359 22.8068L44.7112 22.5781C44.7301 22.5189 44.6978 22.4516 44.6413 22.4274L44.6386 22.4301Z" fill="#D4007F"/>
</svg>
