<svg width="48" height="48" viewBox="0 0 48 48" fill="none" xmlns="http://www.w3.org/2000/svg">
<path d="M22.3411 25.8872C22.9309 26.4816 23.2305 27.2558 23.2305 28.03C23.2305 28.8042 22.9355 29.5784 22.3411 30.1729C21.1567 31.3572 19.2397 31.3572 18.0554 30.1729L14.8572 26.9747C13.6775 25.7904 13.083 24.2374 13.083 22.689C13.083 21.1406 13.5945 19.7259 14.6084 18.1406C14.6867 18.2328 14.7742 18.3203 14.8572 18.4033L22.3411 25.8918V25.8872Z" fill="#F25E21"/>
<path d="M22.3413 6.63825C22.9312 7.22811 23.2261 8.00691 23.2307 8.7811C23.2307 9.55529 22.9358 10.3295 22.3413 10.924L19.6685 13.5968C17.9681 15.3018 17.3505 17.6843 17.8298 19.8779L15.4565 17.5046C14.2768 16.3203 13.6777 14.7719 13.6777 13.2235C13.6777 12.0346 14.1386 10.8687 14.839 9.94239C15.1247 9.56451 15.3321 9.36635 15.6086 9.09447L18.0602 6.63825C19.2445 5.45392 21.1616 5.45392 22.3459 6.63825" fill="#662975"/>
<path d="M25.6589 22.1129C25.0691 21.5185 24.7695 20.7443 24.7695 19.9701C24.7695 19.1959 25.0645 18.4217 25.6589 17.8272C26.8433 16.6429 28.7603 16.6429 29.9446 17.8272L33.1428 21.0254C34.3271 22.2097 34.917 23.7581 34.917 25.3111C34.917 26.8595 34.4055 28.2742 33.3916 29.8595C33.3133 29.7673 33.2257 29.6797 33.1428 29.5968L25.6589 22.1083V22.1129Z" fill="#F25E21"/>
<path d="M25.6589 41.3663C25.0691 40.7765 24.7741 39.9977 24.7695 39.2235C24.7695 38.4493 25.0645 37.6751 25.6589 37.0806L28.3317 34.4078C30.0322 32.7027 30.6497 30.3203 30.1704 28.1267L32.5437 30.5C33.728 31.6843 34.3225 33.2327 34.3271 34.7811C34.3271 35.97 33.8663 37.1359 33.1658 38.0622C32.8801 38.4401 32.6727 38.6382 32.3962 38.9101L29.9446 41.3617C28.7603 42.546 26.8433 42.546 25.6589 41.3617" fill="#662975"/>
</svg>
