<svg width="48" height="48" viewBox="0 0 48 48" fill="none" xmlns="http://www.w3.org/2000/svg">
<path fill-rule="evenodd" clip-rule="evenodd" d="M29.3275 14.705L25.335 10.7208L29.3275 6.73657L33.3283 10.7208L29.3275 14.705Z" fill="#242D5C"/>
<path fill-rule="evenodd" clip-rule="evenodd" d="M43.9998 21.3424L34.6673 12.0515L30.6665 16.0357L35.9982 21.3424L30.6665 26.6575L34.6673 30.6417L43.9998 21.3424Z" fill="#242D5C"/>
<path fill-rule="evenodd" clip-rule="evenodd" d="M23.9964 20.0199L19.9956 16.0357L23.9964 12.0515L27.9973 16.0357L23.9964 20.0199Z" fill="#C0302A"/>
<path fill-rule="evenodd" clip-rule="evenodd" d="M29.3277 17.3584L23.9961 22.6734L18.6644 17.3584L14.6636 21.3426L23.9961 30.6418L33.3286 21.3426L29.3277 17.3584Z" fill="#C0302A"/>
<path fill-rule="evenodd" clip-rule="evenodd" d="M33.3283 31.9726L29.3275 27.9884L23.9958 33.2951L12.0017 21.3425L22.665 10.7208L18.6642 6.73657L4 21.3425L23.9958 41.2635L33.3283 31.9726Z" fill="#242D5C"/>
</svg>
